G75*
%MOIN*%
%OFA0B0*%
%FSLAX25Y25*%
%IPPOS*%
%LPD*%
%AMOC8*
5,1,8,0,0,1.08239X$1,22.5*
%
%ADD10C,0.00000*%
%ADD11C,0.00400*%
%ADD12C,0.00500*%
D10*
X0001000Y0001000D02*
X0001000Y0074701D01*
X0080921Y0074701D01*
X0080921Y0001000D01*
X0001000Y0001000D01*
D11*
X0005700Y0023700D02*
X0005700Y0024722D01*
X0005700Y0024211D02*
X0010300Y0024211D01*
X0010300Y0023700D02*
X0010300Y0024722D01*
X0009278Y0026520D02*
X0006722Y0026520D01*
X0006722Y0026521D02*
X0006660Y0026523D01*
X0006599Y0026528D01*
X0006538Y0026538D01*
X0006477Y0026551D01*
X0006418Y0026567D01*
X0006360Y0026587D01*
X0006303Y0026611D01*
X0006247Y0026638D01*
X0006193Y0026668D01*
X0006141Y0026702D01*
X0006092Y0026738D01*
X0006044Y0026778D01*
X0005999Y0026820D01*
X0005957Y0026865D01*
X0005918Y0026913D01*
X0005881Y0026962D01*
X0005847Y0027014D01*
X0005817Y0027068D01*
X0005790Y0027124D01*
X0005766Y0027181D01*
X0005746Y0027239D01*
X0005730Y0027298D01*
X0005717Y0027359D01*
X0005707Y0027420D01*
X0005702Y0027481D01*
X0005700Y0027543D01*
X0005700Y0027542D02*
X0005700Y0028565D01*
X0006722Y0030283D02*
X0005700Y0031561D01*
X0010300Y0031561D01*
X0010300Y0030283D02*
X0010300Y0032839D01*
X0010300Y0028565D02*
X0010300Y0027542D01*
X0010298Y0027480D01*
X0010293Y0027419D01*
X0010283Y0027358D01*
X0010270Y0027297D01*
X0010254Y0027238D01*
X0010234Y0027180D01*
X0010210Y0027123D01*
X0010183Y0027067D01*
X0010153Y0027013D01*
X0010119Y0026961D01*
X0010083Y0026912D01*
X0010043Y0026864D01*
X0010001Y0026819D01*
X0009956Y0026777D01*
X0009908Y0026737D01*
X0009859Y0026701D01*
X0009807Y0026667D01*
X0009753Y0026637D01*
X0009697Y0026610D01*
X0009640Y0026586D01*
X0009582Y0026566D01*
X0009523Y0026550D01*
X0009462Y0026537D01*
X0009401Y0026527D01*
X0009340Y0026522D01*
X0009278Y0026520D01*
X0022700Y0064700D02*
X0022700Y0069300D01*
X0023978Y0069300D01*
X0024048Y0069298D01*
X0024119Y0069292D01*
X0024188Y0069283D01*
X0024257Y0069269D01*
X0024326Y0069252D01*
X0024393Y0069231D01*
X0024459Y0069206D01*
X0024523Y0069178D01*
X0024586Y0069146D01*
X0024647Y0069111D01*
X0024706Y0069072D01*
X0024763Y0069031D01*
X0024817Y0068986D01*
X0024869Y0068938D01*
X0024918Y0068888D01*
X0024965Y0068834D01*
X0025008Y0068779D01*
X0025048Y0068721D01*
X0025085Y0068661D01*
X0025118Y0068599D01*
X0025148Y0068535D01*
X0025175Y0068470D01*
X0025198Y0068404D01*
X0025217Y0068336D01*
X0025232Y0068267D01*
X0025244Y0068198D01*
X0025252Y0068128D01*
X0025256Y0068057D01*
X0025256Y0067987D01*
X0025252Y0067916D01*
X0025244Y0067846D01*
X0025232Y0067777D01*
X0025217Y0067708D01*
X0025198Y0067640D01*
X0025175Y0067574D01*
X0025148Y0067509D01*
X0025118Y0067445D01*
X0025085Y0067383D01*
X0025048Y0067323D01*
X0025008Y0067265D01*
X0024965Y0067210D01*
X0024918Y0067156D01*
X0024869Y0067106D01*
X0024817Y0067058D01*
X0024763Y0067013D01*
X0024706Y0066972D01*
X0024647Y0066933D01*
X0024586Y0066898D01*
X0024523Y0066866D01*
X0024459Y0066838D01*
X0024393Y0066813D01*
X0024326Y0066792D01*
X0024257Y0066775D01*
X0024188Y0066761D01*
X0024119Y0066752D01*
X0024048Y0066746D01*
X0023978Y0066744D01*
X0022700Y0066744D01*
X0024233Y0066744D02*
X0025256Y0064700D01*
X0027171Y0064700D02*
X0029727Y0064700D01*
X0028449Y0064700D02*
X0028449Y0069300D01*
X0027171Y0068278D01*
X0047700Y0069300D02*
X0047700Y0064700D01*
X0047700Y0066744D02*
X0048978Y0066744D01*
X0049233Y0066744D02*
X0050256Y0064700D01*
X0052171Y0064700D02*
X0054727Y0064700D01*
X0052171Y0064700D02*
X0054343Y0067256D01*
X0053577Y0069300D02*
X0053503Y0069298D01*
X0053429Y0069293D01*
X0053355Y0069283D01*
X0053282Y0069270D01*
X0053209Y0069254D01*
X0053138Y0069233D01*
X0053068Y0069209D01*
X0052999Y0069182D01*
X0052931Y0069151D01*
X0052865Y0069117D01*
X0052801Y0069080D01*
X0052739Y0069039D01*
X0052679Y0068995D01*
X0052621Y0068949D01*
X0052565Y0068899D01*
X0052512Y0068847D01*
X0052462Y0068792D01*
X0052415Y0068735D01*
X0052371Y0068675D01*
X0052329Y0068613D01*
X0052291Y0068550D01*
X0052256Y0068484D01*
X0052225Y0068417D01*
X0052197Y0068348D01*
X0052172Y0068278D01*
X0054343Y0067256D02*
X0054390Y0067303D01*
X0054434Y0067353D01*
X0054476Y0067405D01*
X0054515Y0067459D01*
X0054550Y0067515D01*
X0054583Y0067573D01*
X0054613Y0067633D01*
X0054639Y0067694D01*
X0054662Y0067757D01*
X0054681Y0067821D01*
X0054697Y0067885D01*
X0054710Y0067951D01*
X0054719Y0068017D01*
X0054724Y0068083D01*
X0054726Y0068150D01*
X0054727Y0068150D02*
X0054725Y0068217D01*
X0054719Y0068284D01*
X0054710Y0068350D01*
X0054696Y0068415D01*
X0054679Y0068480D01*
X0054658Y0068543D01*
X0054633Y0068605D01*
X0054605Y0068666D01*
X0054573Y0068725D01*
X0054538Y0068782D01*
X0054499Y0068837D01*
X0054458Y0068889D01*
X0054413Y0068939D01*
X0054366Y0068986D01*
X0054316Y0069031D01*
X0054264Y0069072D01*
X0054209Y0069111D01*
X0054152Y0069146D01*
X0054093Y0069178D01*
X0054032Y0069206D01*
X0053970Y0069231D01*
X0053907Y0069252D01*
X0053842Y0069269D01*
X0053777Y0069283D01*
X0053711Y0069292D01*
X0053644Y0069298D01*
X0053577Y0069300D01*
X0048978Y0069300D02*
X0047700Y0069300D01*
X0048978Y0069300D02*
X0049048Y0069298D01*
X0049119Y0069292D01*
X0049188Y0069283D01*
X0049257Y0069269D01*
X0049326Y0069252D01*
X0049393Y0069231D01*
X0049459Y0069206D01*
X0049523Y0069178D01*
X0049586Y0069146D01*
X0049647Y0069111D01*
X0049706Y0069072D01*
X0049763Y0069031D01*
X0049817Y0068986D01*
X0049869Y0068938D01*
X0049918Y0068888D01*
X0049965Y0068834D01*
X0050008Y0068779D01*
X0050048Y0068721D01*
X0050085Y0068661D01*
X0050118Y0068599D01*
X0050148Y0068535D01*
X0050175Y0068470D01*
X0050198Y0068404D01*
X0050217Y0068336D01*
X0050232Y0068267D01*
X0050244Y0068198D01*
X0050252Y0068128D01*
X0050256Y0068057D01*
X0050256Y0067987D01*
X0050252Y0067916D01*
X0050244Y0067846D01*
X0050232Y0067777D01*
X0050217Y0067708D01*
X0050198Y0067640D01*
X0050175Y0067574D01*
X0050148Y0067509D01*
X0050118Y0067445D01*
X0050085Y0067383D01*
X0050048Y0067323D01*
X0050008Y0067265D01*
X0049965Y0067210D01*
X0049918Y0067156D01*
X0049869Y0067106D01*
X0049817Y0067058D01*
X0049763Y0067013D01*
X0049706Y0066972D01*
X0049647Y0066933D01*
X0049586Y0066898D01*
X0049523Y0066866D01*
X0049459Y0066838D01*
X0049393Y0066813D01*
X0049326Y0066792D01*
X0049257Y0066775D01*
X0049188Y0066761D01*
X0049119Y0066752D01*
X0049048Y0066746D01*
X0048978Y0066744D01*
D12*
X0068750Y0044500D02*
X0073250Y0044500D01*
X0073250Y0043250D02*
X0073250Y0045750D01*
X0069750Y0043250D02*
X0068750Y0044500D01*
X0068750Y0040225D02*
X0068750Y0038975D01*
X0073250Y0038975D01*
X0071250Y0038975D02*
X0071250Y0040225D01*
X0071248Y0040294D01*
X0071242Y0040363D01*
X0071233Y0040431D01*
X0071220Y0040498D01*
X0071203Y0040565D01*
X0071182Y0040631D01*
X0071158Y0040695D01*
X0071130Y0040758D01*
X0071099Y0040820D01*
X0071065Y0040880D01*
X0071027Y0040937D01*
X0070986Y0040993D01*
X0070943Y0041046D01*
X0070896Y0041097D01*
X0070847Y0041145D01*
X0070795Y0041190D01*
X0070740Y0041232D01*
X0070684Y0041271D01*
X0070625Y0041308D01*
X0070564Y0041340D01*
X0070502Y0041370D01*
X0070438Y0041396D01*
X0070373Y0041418D01*
X0070307Y0041437D01*
X0070240Y0041452D01*
X0070172Y0041463D01*
X0070103Y0041471D01*
X0070034Y0041475D01*
X0069966Y0041475D01*
X0069897Y0041471D01*
X0069828Y0041463D01*
X0069760Y0041452D01*
X0069693Y0041437D01*
X0069627Y0041418D01*
X0069562Y0041396D01*
X0069498Y0041370D01*
X0069436Y0041340D01*
X0069375Y0041308D01*
X0069316Y0041271D01*
X0069260Y0041232D01*
X0069205Y0041190D01*
X0069153Y0041145D01*
X0069104Y0041097D01*
X0069057Y0041046D01*
X0069014Y0040993D01*
X0068973Y0040937D01*
X0068935Y0040880D01*
X0068901Y0040820D01*
X0068870Y0040758D01*
X0068842Y0040695D01*
X0068818Y0040631D01*
X0068797Y0040565D01*
X0068780Y0040498D01*
X0068767Y0040431D01*
X0068758Y0040363D01*
X0068752Y0040294D01*
X0068750Y0040225D01*
X0068750Y0036621D02*
X0072250Y0036621D01*
X0072310Y0036619D01*
X0072371Y0036614D01*
X0072430Y0036605D01*
X0072489Y0036592D01*
X0072548Y0036576D01*
X0072605Y0036556D01*
X0072660Y0036533D01*
X0072715Y0036506D01*
X0072767Y0036477D01*
X0072818Y0036444D01*
X0072867Y0036408D01*
X0072913Y0036370D01*
X0072957Y0036328D01*
X0072999Y0036284D01*
X0073037Y0036238D01*
X0073073Y0036189D01*
X0073106Y0036138D01*
X0073135Y0036086D01*
X0073162Y0036031D01*
X0073185Y0035976D01*
X0073205Y0035919D01*
X0073221Y0035860D01*
X0073234Y0035801D01*
X0073243Y0035742D01*
X0073248Y0035681D01*
X0073250Y0035621D01*
X0073250Y0035121D01*
M02*
