G75*
%MOIN*%
%OFA0B0*%
%FSLAX25Y25*%
%IPPOS*%
%LPD*%
%AMOC8*
5,1,8,0,0,1.08239X$1,22.5*
%
%ADD10R,0.02362X0.08661*%
%ADD11R,0.07400X0.07400*%
%ADD12OC8,0.07400*%
%ADD13R,0.03937X0.04331*%
%ADD14C,0.00600*%
D10*
X0013500Y0020764D03*
X0018500Y0020764D03*
X0023500Y0020764D03*
X0028500Y0020764D03*
X0028500Y0041236D03*
X0023500Y0041236D03*
X0018500Y0041236D03*
X0013500Y0041236D03*
D11*
X0051000Y0041000D03*
D12*
X0061000Y0041000D03*
X0061000Y0031000D03*
X0051000Y0031000D03*
X0051000Y0021000D03*
X0061000Y0021000D03*
D13*
X0054346Y0061000D03*
X0047654Y0061000D03*
X0029346Y0061000D03*
X0022654Y0061000D03*
D14*
X0022600Y0061000D01*
X0022600Y0052600D01*
X0016000Y0046000D01*
X0016000Y0036400D01*
X0016600Y0035800D01*
X0020200Y0035800D01*
X0023200Y0038800D01*
X0023500Y0041236D01*
X0023200Y0041200D01*
X0023200Y0038800D01*
X0031000Y0031000D01*
X0051000Y0031000D01*
X0051000Y0021000D02*
X0050800Y0020800D01*
X0028600Y0020800D01*
X0028500Y0020764D01*
X0023800Y0020200D02*
X0023800Y0018400D01*
X0026800Y0015400D01*
X0055600Y0015400D01*
X0061000Y0020800D01*
X0061000Y0021000D01*
X0061000Y0041000D02*
X0061000Y0041200D01*
X0054400Y0047800D01*
X0054400Y0061000D01*
X0054346Y0061000D01*
X0047654Y0061000D02*
X0029346Y0061000D01*
X0029200Y0061000D01*
X0025600Y0064600D01*
X0020800Y0064600D01*
X0011200Y0055000D01*
X0011200Y0036400D01*
X0018400Y0029200D01*
X0018400Y0020800D01*
X0018500Y0020764D01*
X0023500Y0020764D02*
X0023800Y0020200D01*
X0018500Y0041236D02*
X0019000Y0041800D01*
X0019000Y0043600D01*
X0022000Y0046600D01*
X0045400Y0046600D01*
X0051000Y0041000D01*
M02*
