G75*
%MOIN*%
%OFA0B0*%
%FSLAX25Y25*%
%IPPOS*%
%LPD*%
%AMOC8*
5,1,8,0,0,1.08239X$1,22.5*
%
%ADD10C,0.00000*%
%ADD11C,0.00400*%
%ADD12C,0.00500*%
%ADD13C,0.00300*%
%ADD14C,0.00600*%
D10*
X0001000Y0001000D02*
X0001000Y0394701D01*
X0630921Y0394701D01*
X0630921Y0001000D01*
X0001000Y0001000D01*
D11*
X0103200Y0059504D02*
X0103200Y0060526D01*
X0103200Y0059504D02*
X0103202Y0059442D01*
X0103207Y0059381D01*
X0103217Y0059320D01*
X0103230Y0059259D01*
X0103246Y0059200D01*
X0103266Y0059142D01*
X0103290Y0059085D01*
X0103317Y0059029D01*
X0103347Y0058975D01*
X0103381Y0058923D01*
X0103418Y0058874D01*
X0103457Y0058826D01*
X0103499Y0058781D01*
X0103544Y0058739D01*
X0103592Y0058699D01*
X0103641Y0058663D01*
X0103693Y0058629D01*
X0103747Y0058599D01*
X0103803Y0058572D01*
X0103860Y0058548D01*
X0103918Y0058528D01*
X0103977Y0058512D01*
X0104038Y0058499D01*
X0104099Y0058489D01*
X0104160Y0058484D01*
X0104222Y0058482D01*
X0104222Y0058481D02*
X0106778Y0058481D01*
X0106778Y0058482D02*
X0106840Y0058484D01*
X0106901Y0058489D01*
X0106962Y0058499D01*
X0107023Y0058512D01*
X0107082Y0058528D01*
X0107140Y0058548D01*
X0107197Y0058572D01*
X0107253Y0058599D01*
X0107307Y0058629D01*
X0107359Y0058663D01*
X0107408Y0058699D01*
X0107456Y0058739D01*
X0107501Y0058781D01*
X0107543Y0058826D01*
X0107583Y0058874D01*
X0107619Y0058923D01*
X0107653Y0058975D01*
X0107683Y0059029D01*
X0107710Y0059085D01*
X0107734Y0059142D01*
X0107754Y0059200D01*
X0107770Y0059259D01*
X0107783Y0059320D01*
X0107793Y0059381D01*
X0107798Y0059442D01*
X0107800Y0059504D01*
X0107800Y0060526D01*
X0107800Y0062244D02*
X0107800Y0064800D01*
X0107800Y0063522D02*
X0103200Y0063522D01*
X0104222Y0062244D01*
X0146200Y0056526D02*
X0146200Y0055504D01*
X0146202Y0055442D01*
X0146207Y0055381D01*
X0146217Y0055320D01*
X0146230Y0055259D01*
X0146246Y0055200D01*
X0146266Y0055142D01*
X0146290Y0055085D01*
X0146317Y0055029D01*
X0146347Y0054975D01*
X0146381Y0054923D01*
X0146418Y0054874D01*
X0146457Y0054826D01*
X0146499Y0054781D01*
X0146544Y0054739D01*
X0146592Y0054699D01*
X0146641Y0054663D01*
X0146693Y0054629D01*
X0146747Y0054599D01*
X0146803Y0054572D01*
X0146860Y0054548D01*
X0146918Y0054528D01*
X0146977Y0054512D01*
X0147038Y0054499D01*
X0147099Y0054489D01*
X0147160Y0054484D01*
X0147222Y0054482D01*
X0147222Y0054481D02*
X0149778Y0054481D01*
X0149778Y0054482D02*
X0149840Y0054484D01*
X0149901Y0054489D01*
X0149962Y0054499D01*
X0150023Y0054512D01*
X0150082Y0054528D01*
X0150140Y0054548D01*
X0150197Y0054572D01*
X0150253Y0054599D01*
X0150307Y0054629D01*
X0150359Y0054663D01*
X0150408Y0054699D01*
X0150456Y0054739D01*
X0150501Y0054781D01*
X0150543Y0054826D01*
X0150583Y0054874D01*
X0150619Y0054923D01*
X0150653Y0054975D01*
X0150683Y0055029D01*
X0150710Y0055085D01*
X0150734Y0055142D01*
X0150754Y0055200D01*
X0150770Y0055259D01*
X0150783Y0055320D01*
X0150793Y0055381D01*
X0150798Y0055442D01*
X0150800Y0055504D01*
X0150800Y0056526D01*
X0149522Y0058244D02*
X0148244Y0058244D01*
X0148244Y0059778D01*
X0148244Y0058245D02*
X0148155Y0058247D01*
X0148066Y0058253D01*
X0147977Y0058262D01*
X0147889Y0058276D01*
X0147802Y0058293D01*
X0147715Y0058315D01*
X0147629Y0058340D01*
X0147545Y0058368D01*
X0147462Y0058401D01*
X0147380Y0058437D01*
X0147300Y0058476D01*
X0147222Y0058519D01*
X0147146Y0058565D01*
X0147072Y0058615D01*
X0147000Y0058667D01*
X0146930Y0058723D01*
X0146863Y0058782D01*
X0146799Y0058844D01*
X0146737Y0058908D01*
X0146678Y0058975D01*
X0146622Y0059045D01*
X0146570Y0059117D01*
X0146520Y0059191D01*
X0146474Y0059267D01*
X0146431Y0059345D01*
X0146392Y0059425D01*
X0146356Y0059507D01*
X0146323Y0059590D01*
X0146295Y0059674D01*
X0146270Y0059760D01*
X0146248Y0059847D01*
X0146231Y0059934D01*
X0146217Y0060022D01*
X0146208Y0060111D01*
X0146202Y0060200D01*
X0146200Y0060289D01*
X0149267Y0060800D02*
X0149522Y0060800D01*
X0149267Y0060800D02*
X0149205Y0060798D01*
X0149144Y0060793D01*
X0149083Y0060783D01*
X0149022Y0060770D01*
X0148963Y0060754D01*
X0148905Y0060734D01*
X0148848Y0060710D01*
X0148792Y0060683D01*
X0148738Y0060653D01*
X0148686Y0060619D01*
X0148637Y0060583D01*
X0148589Y0060543D01*
X0148544Y0060501D01*
X0148502Y0060456D01*
X0148462Y0060408D01*
X0148426Y0060359D01*
X0148392Y0060307D01*
X0148362Y0060253D01*
X0148335Y0060197D01*
X0148311Y0060140D01*
X0148291Y0060082D01*
X0148275Y0060023D01*
X0148262Y0059962D01*
X0148252Y0059901D01*
X0148247Y0059840D01*
X0148245Y0059778D01*
X0149522Y0060800D02*
X0149592Y0060798D01*
X0149663Y0060792D01*
X0149732Y0060783D01*
X0149801Y0060769D01*
X0149870Y0060752D01*
X0149937Y0060731D01*
X0150003Y0060706D01*
X0150067Y0060678D01*
X0150130Y0060646D01*
X0150191Y0060611D01*
X0150250Y0060572D01*
X0150307Y0060531D01*
X0150361Y0060486D01*
X0150413Y0060438D01*
X0150462Y0060388D01*
X0150509Y0060334D01*
X0150552Y0060279D01*
X0150592Y0060221D01*
X0150629Y0060161D01*
X0150662Y0060099D01*
X0150692Y0060035D01*
X0150719Y0059970D01*
X0150742Y0059904D01*
X0150761Y0059836D01*
X0150776Y0059767D01*
X0150788Y0059698D01*
X0150796Y0059628D01*
X0150800Y0059557D01*
X0150800Y0059487D01*
X0150796Y0059416D01*
X0150788Y0059346D01*
X0150776Y0059277D01*
X0150761Y0059208D01*
X0150742Y0059140D01*
X0150719Y0059074D01*
X0150692Y0059009D01*
X0150662Y0058945D01*
X0150629Y0058883D01*
X0150592Y0058823D01*
X0150552Y0058765D01*
X0150509Y0058710D01*
X0150462Y0058656D01*
X0150413Y0058606D01*
X0150361Y0058558D01*
X0150307Y0058513D01*
X0150250Y0058472D01*
X0150191Y0058433D01*
X0150130Y0058398D01*
X0150067Y0058366D01*
X0150003Y0058338D01*
X0149937Y0058313D01*
X0149870Y0058292D01*
X0149801Y0058275D01*
X0149732Y0058261D01*
X0149663Y0058252D01*
X0149592Y0058246D01*
X0149522Y0058244D01*
X0169700Y0057300D02*
X0169700Y0054744D01*
X0171744Y0054744D01*
X0171744Y0056278D01*
X0171745Y0056278D02*
X0171747Y0056340D01*
X0171752Y0056401D01*
X0171762Y0056462D01*
X0171775Y0056523D01*
X0171791Y0056582D01*
X0171811Y0056640D01*
X0171835Y0056697D01*
X0171862Y0056753D01*
X0171892Y0056807D01*
X0171926Y0056859D01*
X0171962Y0056908D01*
X0172002Y0056956D01*
X0172044Y0057001D01*
X0172089Y0057043D01*
X0172137Y0057083D01*
X0172186Y0057119D01*
X0172238Y0057153D01*
X0172292Y0057183D01*
X0172348Y0057210D01*
X0172405Y0057234D01*
X0172463Y0057254D01*
X0172522Y0057270D01*
X0172583Y0057283D01*
X0172644Y0057293D01*
X0172705Y0057298D01*
X0172767Y0057300D01*
X0173278Y0057300D01*
X0173340Y0057298D01*
X0173401Y0057293D01*
X0173462Y0057283D01*
X0173523Y0057270D01*
X0173582Y0057254D01*
X0173640Y0057234D01*
X0173697Y0057210D01*
X0173753Y0057183D01*
X0173807Y0057153D01*
X0173859Y0057119D01*
X0173908Y0057083D01*
X0173956Y0057043D01*
X0174001Y0057001D01*
X0174043Y0056956D01*
X0174083Y0056908D01*
X0174119Y0056859D01*
X0174153Y0056807D01*
X0174183Y0056753D01*
X0174210Y0056697D01*
X0174234Y0056640D01*
X0174254Y0056582D01*
X0174270Y0056523D01*
X0174283Y0056462D01*
X0174293Y0056401D01*
X0174298Y0056340D01*
X0174300Y0056278D01*
X0174300Y0054744D01*
X0174300Y0053026D02*
X0174300Y0052004D01*
X0174298Y0051942D01*
X0174293Y0051881D01*
X0174283Y0051820D01*
X0174270Y0051759D01*
X0174254Y0051700D01*
X0174234Y0051642D01*
X0174210Y0051585D01*
X0174183Y0051529D01*
X0174153Y0051475D01*
X0174119Y0051423D01*
X0174083Y0051374D01*
X0174043Y0051326D01*
X0174001Y0051281D01*
X0173956Y0051239D01*
X0173908Y0051199D01*
X0173859Y0051163D01*
X0173807Y0051129D01*
X0173753Y0051099D01*
X0173697Y0051072D01*
X0173640Y0051048D01*
X0173582Y0051028D01*
X0173523Y0051012D01*
X0173462Y0050999D01*
X0173401Y0050989D01*
X0173340Y0050984D01*
X0173278Y0050982D01*
X0173278Y0050981D02*
X0170722Y0050981D01*
X0170722Y0050982D02*
X0170660Y0050984D01*
X0170599Y0050989D01*
X0170538Y0050999D01*
X0170477Y0051012D01*
X0170418Y0051028D01*
X0170360Y0051048D01*
X0170303Y0051072D01*
X0170247Y0051099D01*
X0170193Y0051129D01*
X0170141Y0051163D01*
X0170092Y0051199D01*
X0170044Y0051239D01*
X0169999Y0051281D01*
X0169957Y0051326D01*
X0169918Y0051374D01*
X0169881Y0051423D01*
X0169847Y0051475D01*
X0169817Y0051529D01*
X0169790Y0051585D01*
X0169766Y0051642D01*
X0169746Y0051700D01*
X0169730Y0051759D01*
X0169717Y0051820D01*
X0169707Y0051881D01*
X0169702Y0051942D01*
X0169700Y0052004D01*
X0169700Y0053026D01*
X0134278Y0104481D02*
X0131722Y0104481D01*
X0131722Y0104482D02*
X0131660Y0104484D01*
X0131599Y0104489D01*
X0131538Y0104499D01*
X0131477Y0104512D01*
X0131418Y0104528D01*
X0131360Y0104548D01*
X0131303Y0104572D01*
X0131247Y0104599D01*
X0131193Y0104629D01*
X0131141Y0104663D01*
X0131092Y0104699D01*
X0131044Y0104739D01*
X0130999Y0104781D01*
X0130957Y0104826D01*
X0130918Y0104874D01*
X0130881Y0104923D01*
X0130847Y0104975D01*
X0130817Y0105029D01*
X0130790Y0105085D01*
X0130766Y0105142D01*
X0130746Y0105200D01*
X0130730Y0105259D01*
X0130717Y0105320D01*
X0130707Y0105381D01*
X0130702Y0105442D01*
X0130700Y0105504D01*
X0130700Y0106526D01*
X0130700Y0108244D02*
X0130700Y0110800D01*
X0135300Y0109522D01*
X0135300Y0106526D02*
X0135300Y0105504D01*
X0135298Y0105442D01*
X0135293Y0105381D01*
X0135283Y0105320D01*
X0135270Y0105259D01*
X0135254Y0105200D01*
X0135234Y0105142D01*
X0135210Y0105085D01*
X0135183Y0105029D01*
X0135153Y0104975D01*
X0135119Y0104923D01*
X0135083Y0104874D01*
X0135043Y0104826D01*
X0135001Y0104781D01*
X0134956Y0104739D01*
X0134908Y0104699D01*
X0134859Y0104663D01*
X0134807Y0104629D01*
X0134753Y0104599D01*
X0134697Y0104572D01*
X0134640Y0104548D01*
X0134582Y0104528D01*
X0134523Y0104512D01*
X0134462Y0104499D01*
X0134401Y0104489D01*
X0134340Y0104484D01*
X0134278Y0104482D01*
X0131211Y0108244D02*
X0130700Y0108244D01*
X0131278Y0131481D02*
X0128722Y0131481D01*
X0128722Y0131482D02*
X0128660Y0131484D01*
X0128599Y0131489D01*
X0128538Y0131499D01*
X0128477Y0131512D01*
X0128418Y0131528D01*
X0128360Y0131548D01*
X0128303Y0131572D01*
X0128247Y0131599D01*
X0128193Y0131629D01*
X0128141Y0131663D01*
X0128092Y0131699D01*
X0128044Y0131739D01*
X0127999Y0131781D01*
X0127957Y0131826D01*
X0127918Y0131874D01*
X0127881Y0131923D01*
X0127847Y0131975D01*
X0127817Y0132029D01*
X0127790Y0132085D01*
X0127766Y0132142D01*
X0127746Y0132200D01*
X0127730Y0132259D01*
X0127717Y0132320D01*
X0127707Y0132381D01*
X0127702Y0132442D01*
X0127700Y0132504D01*
X0127700Y0133526D01*
X0129744Y0137417D02*
X0129697Y0137464D01*
X0129647Y0137508D01*
X0129595Y0137550D01*
X0129541Y0137589D01*
X0129485Y0137624D01*
X0129427Y0137657D01*
X0129367Y0137687D01*
X0129306Y0137713D01*
X0129243Y0137736D01*
X0129179Y0137755D01*
X0129115Y0137771D01*
X0129049Y0137784D01*
X0128983Y0137793D01*
X0128917Y0137798D01*
X0128850Y0137800D01*
X0129744Y0137417D02*
X0132300Y0135244D01*
X0132300Y0137800D01*
X0128722Y0135245D02*
X0128652Y0135270D01*
X0128583Y0135298D01*
X0128516Y0135329D01*
X0128450Y0135364D01*
X0128387Y0135402D01*
X0128325Y0135444D01*
X0128265Y0135488D01*
X0128208Y0135535D01*
X0128153Y0135585D01*
X0128101Y0135638D01*
X0128051Y0135694D01*
X0128005Y0135751D01*
X0127961Y0135812D01*
X0127920Y0135874D01*
X0127883Y0135938D01*
X0127849Y0136004D01*
X0127818Y0136072D01*
X0127791Y0136141D01*
X0127767Y0136211D01*
X0127746Y0136282D01*
X0127730Y0136355D01*
X0127717Y0136428D01*
X0127707Y0136502D01*
X0127702Y0136576D01*
X0127700Y0136650D01*
X0127702Y0136717D01*
X0127708Y0136784D01*
X0127717Y0136850D01*
X0127731Y0136915D01*
X0127748Y0136980D01*
X0127769Y0137043D01*
X0127794Y0137105D01*
X0127822Y0137166D01*
X0127854Y0137225D01*
X0127889Y0137282D01*
X0127928Y0137337D01*
X0127969Y0137389D01*
X0128014Y0137439D01*
X0128061Y0137486D01*
X0128111Y0137531D01*
X0128163Y0137572D01*
X0128218Y0137611D01*
X0128275Y0137646D01*
X0128334Y0137678D01*
X0128395Y0137706D01*
X0128457Y0137731D01*
X0128520Y0137752D01*
X0128585Y0137769D01*
X0128650Y0137783D01*
X0128716Y0137792D01*
X0128783Y0137798D01*
X0128850Y0137800D01*
X0132300Y0133526D02*
X0132300Y0132504D01*
X0132298Y0132442D01*
X0132293Y0132381D01*
X0132283Y0132320D01*
X0132270Y0132259D01*
X0132254Y0132200D01*
X0132234Y0132142D01*
X0132210Y0132085D01*
X0132183Y0132029D01*
X0132153Y0131975D01*
X0132119Y0131923D01*
X0132083Y0131874D01*
X0132043Y0131826D01*
X0132001Y0131781D01*
X0131956Y0131739D01*
X0131908Y0131699D01*
X0131859Y0131663D01*
X0131807Y0131629D01*
X0131753Y0131599D01*
X0131697Y0131572D01*
X0131640Y0131548D01*
X0131582Y0131528D01*
X0131523Y0131512D01*
X0131462Y0131499D01*
X0131401Y0131489D01*
X0131340Y0131484D01*
X0131278Y0131482D01*
X0140222Y0162700D02*
X0141244Y0162700D01*
X0140222Y0162700D02*
X0140160Y0162702D01*
X0140099Y0162707D01*
X0140038Y0162717D01*
X0139977Y0162730D01*
X0139918Y0162746D01*
X0139860Y0162766D01*
X0139803Y0162790D01*
X0139747Y0162817D01*
X0139693Y0162847D01*
X0139641Y0162881D01*
X0139592Y0162917D01*
X0139544Y0162957D01*
X0139499Y0162999D01*
X0139457Y0163044D01*
X0139417Y0163092D01*
X0139381Y0163141D01*
X0139347Y0163193D01*
X0139317Y0163247D01*
X0139290Y0163303D01*
X0139266Y0163360D01*
X0139246Y0163418D01*
X0139230Y0163477D01*
X0139217Y0163538D01*
X0139207Y0163599D01*
X0139202Y0163660D01*
X0139200Y0163722D01*
X0139200Y0166278D01*
X0139202Y0166340D01*
X0139207Y0166401D01*
X0139217Y0166462D01*
X0139230Y0166523D01*
X0139246Y0166582D01*
X0139266Y0166640D01*
X0139290Y0166697D01*
X0139317Y0166753D01*
X0139347Y0166807D01*
X0139381Y0166859D01*
X0139417Y0166908D01*
X0139457Y0166956D01*
X0139499Y0167001D01*
X0139544Y0167043D01*
X0139592Y0167082D01*
X0139641Y0167119D01*
X0139693Y0167153D01*
X0139747Y0167183D01*
X0139803Y0167210D01*
X0139860Y0167234D01*
X0139918Y0167254D01*
X0139977Y0167270D01*
X0140038Y0167283D01*
X0140099Y0167293D01*
X0140160Y0167298D01*
X0140222Y0167300D01*
X0141244Y0167300D01*
X0143985Y0167300D02*
X0142963Y0163722D01*
X0145519Y0163722D01*
X0144752Y0164744D02*
X0144752Y0162700D01*
X0135522Y0176700D02*
X0134244Y0176700D01*
X0132526Y0176700D02*
X0131504Y0176700D01*
X0131442Y0176702D01*
X0131381Y0176707D01*
X0131320Y0176717D01*
X0131259Y0176730D01*
X0131200Y0176746D01*
X0131142Y0176766D01*
X0131085Y0176790D01*
X0131029Y0176817D01*
X0130975Y0176847D01*
X0130923Y0176881D01*
X0130874Y0176917D01*
X0130826Y0176957D01*
X0130781Y0176999D01*
X0130739Y0177044D01*
X0130699Y0177092D01*
X0130663Y0177141D01*
X0130629Y0177193D01*
X0130599Y0177247D01*
X0130572Y0177303D01*
X0130548Y0177360D01*
X0130528Y0177418D01*
X0130512Y0177477D01*
X0130499Y0177538D01*
X0130489Y0177599D01*
X0130484Y0177660D01*
X0130482Y0177722D01*
X0130481Y0177722D02*
X0130481Y0180278D01*
X0130482Y0180278D02*
X0130484Y0180340D01*
X0130489Y0180401D01*
X0130499Y0180462D01*
X0130512Y0180523D01*
X0130528Y0180582D01*
X0130548Y0180640D01*
X0130572Y0180697D01*
X0130599Y0180753D01*
X0130629Y0180807D01*
X0130663Y0180859D01*
X0130699Y0180908D01*
X0130739Y0180956D01*
X0130781Y0181001D01*
X0130826Y0181043D01*
X0130874Y0181082D01*
X0130923Y0181119D01*
X0130975Y0181153D01*
X0131029Y0181183D01*
X0131085Y0181210D01*
X0131142Y0181234D01*
X0131200Y0181254D01*
X0131259Y0181270D01*
X0131320Y0181283D01*
X0131381Y0181293D01*
X0131442Y0181298D01*
X0131504Y0181300D01*
X0132526Y0181300D01*
X0134244Y0181300D02*
X0135778Y0181300D01*
X0135841Y0181298D01*
X0135904Y0181292D01*
X0135966Y0181283D01*
X0136027Y0181269D01*
X0136088Y0181252D01*
X0136147Y0181231D01*
X0136205Y0181206D01*
X0136262Y0181178D01*
X0136316Y0181147D01*
X0136368Y0181112D01*
X0136419Y0181074D01*
X0136467Y0181033D01*
X0136512Y0180989D01*
X0136554Y0180943D01*
X0136594Y0180894D01*
X0136630Y0180843D01*
X0136663Y0180789D01*
X0136693Y0180734D01*
X0136719Y0180676D01*
X0136742Y0180618D01*
X0136761Y0180558D01*
X0136776Y0180497D01*
X0136788Y0180435D01*
X0136796Y0180372D01*
X0136800Y0180309D01*
X0136800Y0180247D01*
X0136796Y0180184D01*
X0136788Y0180121D01*
X0136776Y0180059D01*
X0136761Y0179998D01*
X0136742Y0179938D01*
X0136719Y0179880D01*
X0136693Y0179822D01*
X0136663Y0179767D01*
X0136630Y0179713D01*
X0136594Y0179662D01*
X0136554Y0179613D01*
X0136512Y0179567D01*
X0136467Y0179523D01*
X0136419Y0179482D01*
X0136368Y0179444D01*
X0136316Y0179409D01*
X0136262Y0179378D01*
X0136205Y0179350D01*
X0136147Y0179325D01*
X0136088Y0179304D01*
X0136027Y0179287D01*
X0135966Y0179273D01*
X0135904Y0179264D01*
X0135841Y0179258D01*
X0135778Y0179256D01*
X0134756Y0179256D01*
X0135522Y0179256D02*
X0135592Y0179254D01*
X0135663Y0179248D01*
X0135732Y0179239D01*
X0135801Y0179225D01*
X0135870Y0179208D01*
X0135937Y0179187D01*
X0136003Y0179162D01*
X0136067Y0179134D01*
X0136130Y0179102D01*
X0136191Y0179067D01*
X0136250Y0179028D01*
X0136307Y0178987D01*
X0136361Y0178942D01*
X0136413Y0178894D01*
X0136462Y0178844D01*
X0136509Y0178790D01*
X0136552Y0178735D01*
X0136592Y0178677D01*
X0136629Y0178617D01*
X0136662Y0178555D01*
X0136692Y0178491D01*
X0136719Y0178426D01*
X0136742Y0178360D01*
X0136761Y0178292D01*
X0136776Y0178223D01*
X0136788Y0178154D01*
X0136796Y0178084D01*
X0136800Y0178013D01*
X0136800Y0177943D01*
X0136796Y0177872D01*
X0136788Y0177802D01*
X0136776Y0177733D01*
X0136761Y0177664D01*
X0136742Y0177596D01*
X0136719Y0177530D01*
X0136692Y0177465D01*
X0136662Y0177401D01*
X0136629Y0177339D01*
X0136592Y0177279D01*
X0136552Y0177221D01*
X0136509Y0177166D01*
X0136462Y0177112D01*
X0136413Y0177062D01*
X0136361Y0177014D01*
X0136307Y0176969D01*
X0136250Y0176928D01*
X0136191Y0176889D01*
X0136130Y0176854D01*
X0136067Y0176822D01*
X0136003Y0176794D01*
X0135937Y0176769D01*
X0135870Y0176748D01*
X0135801Y0176731D01*
X0135732Y0176717D01*
X0135663Y0176708D01*
X0135592Y0176702D01*
X0135522Y0176700D01*
X0083778Y0239981D02*
X0081222Y0239981D01*
X0081222Y0239982D02*
X0081160Y0239984D01*
X0081099Y0239989D01*
X0081038Y0239999D01*
X0080977Y0240012D01*
X0080918Y0240028D01*
X0080860Y0240048D01*
X0080803Y0240072D01*
X0080747Y0240099D01*
X0080693Y0240129D01*
X0080641Y0240163D01*
X0080592Y0240199D01*
X0080544Y0240239D01*
X0080499Y0240281D01*
X0080457Y0240326D01*
X0080418Y0240374D01*
X0080381Y0240423D01*
X0080347Y0240475D01*
X0080317Y0240529D01*
X0080290Y0240585D01*
X0080266Y0240642D01*
X0080246Y0240700D01*
X0080230Y0240759D01*
X0080217Y0240820D01*
X0080207Y0240881D01*
X0080202Y0240942D01*
X0080200Y0241004D01*
X0080200Y0242026D01*
X0081222Y0244000D02*
X0081285Y0244002D01*
X0081348Y0244008D01*
X0081410Y0244017D01*
X0081471Y0244031D01*
X0081532Y0244048D01*
X0081591Y0244069D01*
X0081649Y0244094D01*
X0081706Y0244122D01*
X0081760Y0244153D01*
X0081812Y0244188D01*
X0081863Y0244226D01*
X0081911Y0244267D01*
X0081956Y0244311D01*
X0081998Y0244357D01*
X0082038Y0244406D01*
X0082074Y0244457D01*
X0082107Y0244511D01*
X0082137Y0244566D01*
X0082163Y0244624D01*
X0082186Y0244682D01*
X0082205Y0244742D01*
X0082220Y0244803D01*
X0082232Y0244865D01*
X0082240Y0244928D01*
X0082244Y0244991D01*
X0082244Y0245053D01*
X0082240Y0245116D01*
X0082232Y0245179D01*
X0082220Y0245241D01*
X0082205Y0245302D01*
X0082186Y0245362D01*
X0082163Y0245420D01*
X0082137Y0245478D01*
X0082107Y0245533D01*
X0082074Y0245587D01*
X0082038Y0245638D01*
X0081998Y0245687D01*
X0081956Y0245733D01*
X0081911Y0245777D01*
X0081863Y0245818D01*
X0081812Y0245856D01*
X0081760Y0245891D01*
X0081706Y0245922D01*
X0081649Y0245950D01*
X0081591Y0245975D01*
X0081532Y0245996D01*
X0081471Y0246013D01*
X0081410Y0246027D01*
X0081348Y0246036D01*
X0081285Y0246042D01*
X0081222Y0246044D01*
X0081159Y0246042D01*
X0081096Y0246036D01*
X0081034Y0246027D01*
X0080973Y0246013D01*
X0080912Y0245996D01*
X0080853Y0245975D01*
X0080795Y0245950D01*
X0080738Y0245922D01*
X0080684Y0245891D01*
X0080632Y0245856D01*
X0080581Y0245818D01*
X0080533Y0245777D01*
X0080488Y0245733D01*
X0080446Y0245687D01*
X0080406Y0245638D01*
X0080370Y0245587D01*
X0080337Y0245533D01*
X0080307Y0245478D01*
X0080281Y0245420D01*
X0080258Y0245362D01*
X0080239Y0245302D01*
X0080224Y0245241D01*
X0080212Y0245179D01*
X0080204Y0245116D01*
X0080200Y0245053D01*
X0080200Y0244991D01*
X0080204Y0244928D01*
X0080212Y0244865D01*
X0080224Y0244803D01*
X0080239Y0244742D01*
X0080258Y0244682D01*
X0080281Y0244624D01*
X0080307Y0244566D01*
X0080337Y0244511D01*
X0080370Y0244457D01*
X0080406Y0244406D01*
X0080446Y0244357D01*
X0080488Y0244311D01*
X0080533Y0244267D01*
X0080581Y0244226D01*
X0080632Y0244188D01*
X0080684Y0244153D01*
X0080738Y0244122D01*
X0080795Y0244094D01*
X0080853Y0244069D01*
X0080912Y0244048D01*
X0080973Y0244031D01*
X0081034Y0244017D01*
X0081096Y0244008D01*
X0081159Y0244002D01*
X0081222Y0244000D01*
X0083522Y0243744D02*
X0083592Y0243746D01*
X0083663Y0243752D01*
X0083732Y0243761D01*
X0083801Y0243775D01*
X0083870Y0243792D01*
X0083937Y0243813D01*
X0084003Y0243838D01*
X0084067Y0243866D01*
X0084130Y0243898D01*
X0084191Y0243933D01*
X0084250Y0243972D01*
X0084307Y0244013D01*
X0084361Y0244058D01*
X0084413Y0244106D01*
X0084462Y0244156D01*
X0084509Y0244210D01*
X0084552Y0244265D01*
X0084592Y0244323D01*
X0084629Y0244383D01*
X0084662Y0244445D01*
X0084692Y0244509D01*
X0084719Y0244574D01*
X0084742Y0244640D01*
X0084761Y0244708D01*
X0084776Y0244777D01*
X0084788Y0244846D01*
X0084796Y0244916D01*
X0084800Y0244987D01*
X0084800Y0245057D01*
X0084796Y0245128D01*
X0084788Y0245198D01*
X0084776Y0245267D01*
X0084761Y0245336D01*
X0084742Y0245404D01*
X0084719Y0245470D01*
X0084692Y0245535D01*
X0084662Y0245599D01*
X0084629Y0245661D01*
X0084592Y0245721D01*
X0084552Y0245779D01*
X0084509Y0245834D01*
X0084462Y0245888D01*
X0084413Y0245938D01*
X0084361Y0245986D01*
X0084307Y0246031D01*
X0084250Y0246072D01*
X0084191Y0246111D01*
X0084130Y0246146D01*
X0084067Y0246178D01*
X0084003Y0246206D01*
X0083937Y0246231D01*
X0083870Y0246252D01*
X0083801Y0246269D01*
X0083732Y0246283D01*
X0083663Y0246292D01*
X0083592Y0246298D01*
X0083522Y0246300D01*
X0083452Y0246298D01*
X0083381Y0246292D01*
X0083312Y0246283D01*
X0083243Y0246269D01*
X0083174Y0246252D01*
X0083107Y0246231D01*
X0083041Y0246206D01*
X0082977Y0246178D01*
X0082914Y0246146D01*
X0082853Y0246111D01*
X0082794Y0246072D01*
X0082737Y0246031D01*
X0082683Y0245986D01*
X0082631Y0245938D01*
X0082582Y0245888D01*
X0082535Y0245834D01*
X0082492Y0245779D01*
X0082452Y0245721D01*
X0082415Y0245661D01*
X0082382Y0245599D01*
X0082352Y0245535D01*
X0082325Y0245470D01*
X0082302Y0245404D01*
X0082283Y0245336D01*
X0082268Y0245267D01*
X0082256Y0245198D01*
X0082248Y0245128D01*
X0082244Y0245057D01*
X0082244Y0244987D01*
X0082248Y0244916D01*
X0082256Y0244846D01*
X0082268Y0244777D01*
X0082283Y0244708D01*
X0082302Y0244640D01*
X0082325Y0244574D01*
X0082352Y0244509D01*
X0082382Y0244445D01*
X0082415Y0244383D01*
X0082452Y0244323D01*
X0082492Y0244265D01*
X0082535Y0244210D01*
X0082582Y0244156D01*
X0082631Y0244106D01*
X0082683Y0244058D01*
X0082737Y0244013D01*
X0082794Y0243972D01*
X0082853Y0243933D01*
X0082914Y0243898D01*
X0082977Y0243866D01*
X0083041Y0243838D01*
X0083107Y0243813D01*
X0083174Y0243792D01*
X0083243Y0243775D01*
X0083312Y0243761D01*
X0083381Y0243752D01*
X0083452Y0243746D01*
X0083522Y0243744D01*
X0084800Y0242026D02*
X0084800Y0241004D01*
X0084798Y0240942D01*
X0084793Y0240881D01*
X0084783Y0240820D01*
X0084770Y0240759D01*
X0084754Y0240700D01*
X0084734Y0240642D01*
X0084710Y0240585D01*
X0084683Y0240529D01*
X0084653Y0240475D01*
X0084619Y0240423D01*
X0084583Y0240374D01*
X0084543Y0240326D01*
X0084501Y0240281D01*
X0084456Y0240239D01*
X0084408Y0240199D01*
X0084359Y0240163D01*
X0084307Y0240129D01*
X0084253Y0240099D01*
X0084197Y0240072D01*
X0084140Y0240048D01*
X0084082Y0240028D01*
X0084023Y0240012D01*
X0083962Y0239999D01*
X0083901Y0239989D01*
X0083840Y0239984D01*
X0083778Y0239982D01*
X0103700Y0251222D02*
X0103700Y0252244D01*
X0103700Y0251222D02*
X0103702Y0251160D01*
X0103707Y0251099D01*
X0103717Y0251038D01*
X0103730Y0250977D01*
X0103746Y0250918D01*
X0103766Y0250860D01*
X0103790Y0250803D01*
X0103817Y0250747D01*
X0103847Y0250693D01*
X0103881Y0250641D01*
X0103918Y0250592D01*
X0103957Y0250544D01*
X0103999Y0250499D01*
X0104044Y0250457D01*
X0104092Y0250417D01*
X0104141Y0250381D01*
X0104193Y0250347D01*
X0104247Y0250317D01*
X0104303Y0250290D01*
X0104360Y0250266D01*
X0104418Y0250246D01*
X0104477Y0250230D01*
X0104538Y0250217D01*
X0104599Y0250207D01*
X0104660Y0250202D01*
X0104722Y0250200D01*
X0107278Y0250200D01*
X0107340Y0250202D01*
X0107401Y0250207D01*
X0107462Y0250217D01*
X0107523Y0250230D01*
X0107582Y0250246D01*
X0107640Y0250266D01*
X0107697Y0250290D01*
X0107753Y0250317D01*
X0107807Y0250347D01*
X0107859Y0250381D01*
X0107908Y0250417D01*
X0107956Y0250457D01*
X0108001Y0250499D01*
X0108043Y0250544D01*
X0108083Y0250592D01*
X0108119Y0250641D01*
X0108153Y0250693D01*
X0108183Y0250747D01*
X0108210Y0250803D01*
X0108234Y0250860D01*
X0108254Y0250918D01*
X0108270Y0250977D01*
X0108283Y0251038D01*
X0108293Y0251099D01*
X0108298Y0251160D01*
X0108300Y0251222D01*
X0108300Y0252244D01*
X0108300Y0254474D02*
X0108298Y0254563D01*
X0108292Y0254652D01*
X0108283Y0254741D01*
X0108269Y0254829D01*
X0108252Y0254916D01*
X0108230Y0255003D01*
X0108205Y0255089D01*
X0108177Y0255173D01*
X0108144Y0255256D01*
X0108108Y0255338D01*
X0108069Y0255418D01*
X0108026Y0255496D01*
X0107980Y0255572D01*
X0107930Y0255646D01*
X0107878Y0255718D01*
X0107822Y0255788D01*
X0107763Y0255855D01*
X0107701Y0255919D01*
X0107637Y0255981D01*
X0107570Y0256040D01*
X0107500Y0256096D01*
X0107428Y0256148D01*
X0107354Y0256198D01*
X0107278Y0256244D01*
X0107200Y0256287D01*
X0107120Y0256326D01*
X0107038Y0256362D01*
X0106955Y0256395D01*
X0106871Y0256423D01*
X0106785Y0256448D01*
X0106698Y0256470D01*
X0106611Y0256487D01*
X0106523Y0256501D01*
X0106434Y0256510D01*
X0106345Y0256516D01*
X0106256Y0256518D01*
X0106256Y0256519D02*
X0104978Y0256519D01*
X0106256Y0256519D02*
X0106256Y0254985D01*
X0106255Y0254985D02*
X0106253Y0254923D01*
X0106248Y0254862D01*
X0106238Y0254801D01*
X0106225Y0254740D01*
X0106209Y0254681D01*
X0106189Y0254623D01*
X0106165Y0254566D01*
X0106138Y0254510D01*
X0106108Y0254456D01*
X0106074Y0254404D01*
X0106038Y0254355D01*
X0105998Y0254307D01*
X0105956Y0254262D01*
X0105911Y0254220D01*
X0105863Y0254180D01*
X0105814Y0254144D01*
X0105762Y0254110D01*
X0105708Y0254080D01*
X0105652Y0254053D01*
X0105595Y0254029D01*
X0105537Y0254009D01*
X0105478Y0253993D01*
X0105417Y0253980D01*
X0105356Y0253970D01*
X0105295Y0253965D01*
X0105233Y0253963D01*
X0104978Y0253963D01*
X0104908Y0253965D01*
X0104837Y0253971D01*
X0104768Y0253980D01*
X0104699Y0253994D01*
X0104630Y0254011D01*
X0104563Y0254032D01*
X0104497Y0254057D01*
X0104433Y0254085D01*
X0104370Y0254117D01*
X0104309Y0254152D01*
X0104250Y0254191D01*
X0104193Y0254232D01*
X0104139Y0254277D01*
X0104087Y0254325D01*
X0104038Y0254375D01*
X0103991Y0254429D01*
X0103948Y0254484D01*
X0103908Y0254542D01*
X0103871Y0254602D01*
X0103838Y0254664D01*
X0103808Y0254728D01*
X0103781Y0254793D01*
X0103758Y0254859D01*
X0103739Y0254927D01*
X0103724Y0254996D01*
X0103712Y0255065D01*
X0103704Y0255135D01*
X0103700Y0255206D01*
X0103700Y0255276D01*
X0103704Y0255347D01*
X0103712Y0255417D01*
X0103724Y0255486D01*
X0103739Y0255555D01*
X0103758Y0255623D01*
X0103781Y0255689D01*
X0103808Y0255754D01*
X0103838Y0255818D01*
X0103871Y0255880D01*
X0103908Y0255940D01*
X0103948Y0255998D01*
X0103991Y0256053D01*
X0104038Y0256107D01*
X0104087Y0256157D01*
X0104139Y0256205D01*
X0104193Y0256250D01*
X0104250Y0256291D01*
X0104309Y0256330D01*
X0104370Y0256365D01*
X0104433Y0256397D01*
X0104497Y0256425D01*
X0104563Y0256450D01*
X0104630Y0256471D01*
X0104699Y0256488D01*
X0104768Y0256502D01*
X0104837Y0256511D01*
X0104908Y0256517D01*
X0104978Y0256519D01*
X0136700Y0257222D02*
X0136700Y0258244D01*
X0136700Y0257222D02*
X0136702Y0257160D01*
X0136707Y0257099D01*
X0136717Y0257038D01*
X0136730Y0256977D01*
X0136746Y0256918D01*
X0136766Y0256860D01*
X0136790Y0256803D01*
X0136817Y0256747D01*
X0136847Y0256693D01*
X0136881Y0256641D01*
X0136918Y0256592D01*
X0136957Y0256544D01*
X0136999Y0256499D01*
X0137044Y0256457D01*
X0137092Y0256417D01*
X0137141Y0256381D01*
X0137193Y0256347D01*
X0137247Y0256317D01*
X0137303Y0256290D01*
X0137360Y0256266D01*
X0137418Y0256246D01*
X0137477Y0256230D01*
X0137538Y0256217D01*
X0137599Y0256207D01*
X0137660Y0256202D01*
X0137722Y0256200D01*
X0140278Y0256200D01*
X0140340Y0256202D01*
X0140401Y0256207D01*
X0140462Y0256217D01*
X0140523Y0256230D01*
X0140582Y0256246D01*
X0140640Y0256266D01*
X0140697Y0256290D01*
X0140753Y0256317D01*
X0140807Y0256347D01*
X0140859Y0256381D01*
X0140908Y0256417D01*
X0140956Y0256457D01*
X0141001Y0256499D01*
X0141043Y0256544D01*
X0141083Y0256592D01*
X0141119Y0256641D01*
X0141153Y0256693D01*
X0141183Y0256747D01*
X0141210Y0256803D01*
X0141234Y0256860D01*
X0141254Y0256918D01*
X0141270Y0256977D01*
X0141283Y0257038D01*
X0141293Y0257099D01*
X0141298Y0257160D01*
X0141300Y0257222D01*
X0141300Y0258244D01*
X0141300Y0259963D02*
X0141300Y0262519D01*
X0141300Y0261241D02*
X0136700Y0261241D01*
X0137722Y0259963D01*
X0139000Y0267019D02*
X0139115Y0267017D01*
X0139229Y0267012D01*
X0139343Y0267003D01*
X0139457Y0266991D01*
X0139571Y0266976D01*
X0139684Y0266957D01*
X0139796Y0266934D01*
X0139908Y0266909D01*
X0140019Y0266879D01*
X0140129Y0266847D01*
X0140238Y0266811D01*
X0140346Y0266772D01*
X0140452Y0266730D01*
X0140557Y0266684D01*
X0140661Y0266636D01*
X0140716Y0266615D01*
X0140769Y0266591D01*
X0140821Y0266564D01*
X0140871Y0266533D01*
X0140919Y0266500D01*
X0140965Y0266463D01*
X0141009Y0266424D01*
X0141050Y0266382D01*
X0141088Y0266338D01*
X0141124Y0266291D01*
X0141156Y0266242D01*
X0141186Y0266191D01*
X0141212Y0266139D01*
X0141235Y0266085D01*
X0141255Y0266030D01*
X0141271Y0265973D01*
X0141284Y0265916D01*
X0141293Y0265858D01*
X0141298Y0265800D01*
X0141300Y0265741D01*
X0141298Y0265682D01*
X0141293Y0265624D01*
X0141284Y0265566D01*
X0141271Y0265509D01*
X0141255Y0265452D01*
X0141235Y0265397D01*
X0141212Y0265343D01*
X0141186Y0265291D01*
X0141156Y0265240D01*
X0141124Y0265191D01*
X0141088Y0265144D01*
X0141050Y0265100D01*
X0141009Y0265058D01*
X0140965Y0265019D01*
X0140919Y0264982D01*
X0140871Y0264949D01*
X0140821Y0264918D01*
X0140769Y0264891D01*
X0140716Y0264867D01*
X0140661Y0264846D01*
X0140278Y0264719D02*
X0137722Y0266763D01*
X0137339Y0266636D02*
X0137284Y0266615D01*
X0137231Y0266591D01*
X0137179Y0266564D01*
X0137129Y0266533D01*
X0137081Y0266500D01*
X0137035Y0266463D01*
X0136991Y0266424D01*
X0136950Y0266382D01*
X0136912Y0266338D01*
X0136876Y0266291D01*
X0136844Y0266242D01*
X0136814Y0266191D01*
X0136788Y0266139D01*
X0136765Y0266085D01*
X0136745Y0266030D01*
X0136729Y0265973D01*
X0136716Y0265916D01*
X0136707Y0265858D01*
X0136702Y0265800D01*
X0136700Y0265741D01*
X0136702Y0265682D01*
X0136707Y0265624D01*
X0136716Y0265566D01*
X0136729Y0265509D01*
X0136745Y0265452D01*
X0136765Y0265397D01*
X0136788Y0265343D01*
X0136814Y0265291D01*
X0136844Y0265240D01*
X0136876Y0265191D01*
X0136912Y0265144D01*
X0136950Y0265100D01*
X0136991Y0265058D01*
X0137035Y0265019D01*
X0137081Y0264982D01*
X0137129Y0264949D01*
X0137179Y0264918D01*
X0137231Y0264891D01*
X0137284Y0264867D01*
X0137339Y0264846D01*
X0137339Y0266636D02*
X0137443Y0266684D01*
X0137548Y0266730D01*
X0137654Y0266772D01*
X0137762Y0266811D01*
X0137871Y0266847D01*
X0137981Y0266879D01*
X0138092Y0266909D01*
X0138204Y0266934D01*
X0138316Y0266957D01*
X0138429Y0266976D01*
X0138543Y0266991D01*
X0138657Y0267003D01*
X0138771Y0267012D01*
X0138885Y0267017D01*
X0139000Y0267019D01*
X0139000Y0264463D02*
X0138885Y0264465D01*
X0138771Y0264470D01*
X0138657Y0264479D01*
X0138543Y0264491D01*
X0138429Y0264506D01*
X0138316Y0264525D01*
X0138204Y0264548D01*
X0138092Y0264573D01*
X0137981Y0264603D01*
X0137871Y0264635D01*
X0137762Y0264671D01*
X0137654Y0264710D01*
X0137548Y0264752D01*
X0137443Y0264798D01*
X0137339Y0264846D01*
X0139000Y0264463D02*
X0139115Y0264465D01*
X0139229Y0264470D01*
X0139343Y0264479D01*
X0139457Y0264491D01*
X0139571Y0264506D01*
X0139684Y0264525D01*
X0139796Y0264548D01*
X0139908Y0264573D01*
X0140019Y0264603D01*
X0140129Y0264635D01*
X0140238Y0264671D01*
X0140346Y0264710D01*
X0140452Y0264752D01*
X0140557Y0264798D01*
X0140661Y0264846D01*
D12*
X0154157Y0271843D02*
X0170299Y0271843D01*
X0173843Y0268299D01*
X0175024Y0267118D01*
X0176598Y0268693D01*
X0173843Y0271843D01*
X0173843Y0268299D01*
X0173843Y0252157D01*
X0154157Y0252157D01*
X0154157Y0271843D01*
X0157227Y0262000D02*
X0157229Y0262166D01*
X0157235Y0262332D01*
X0157245Y0262498D01*
X0157260Y0262664D01*
X0157278Y0262829D01*
X0157300Y0262994D01*
X0157327Y0263158D01*
X0157357Y0263321D01*
X0157392Y0263484D01*
X0157430Y0263646D01*
X0157472Y0263806D01*
X0157519Y0263966D01*
X0157569Y0264125D01*
X0157623Y0264282D01*
X0157681Y0264438D01*
X0157743Y0264592D01*
X0157808Y0264745D01*
X0157877Y0264896D01*
X0157950Y0265045D01*
X0158027Y0265193D01*
X0158107Y0265338D01*
X0158191Y0265482D01*
X0158278Y0265624D01*
X0158368Y0265763D01*
X0158462Y0265900D01*
X0158560Y0266035D01*
X0158661Y0266167D01*
X0158764Y0266297D01*
X0158871Y0266424D01*
X0158982Y0266548D01*
X0159095Y0266670D01*
X0159211Y0266789D01*
X0159330Y0266905D01*
X0159452Y0267018D01*
X0159576Y0267129D01*
X0159703Y0267236D01*
X0159833Y0267339D01*
X0159965Y0267440D01*
X0160100Y0267538D01*
X0160237Y0267632D01*
X0160376Y0267722D01*
X0160518Y0267809D01*
X0160662Y0267893D01*
X0160807Y0267973D01*
X0160955Y0268050D01*
X0161104Y0268123D01*
X0161255Y0268192D01*
X0161408Y0268257D01*
X0161562Y0268319D01*
X0161718Y0268377D01*
X0161875Y0268431D01*
X0162034Y0268481D01*
X0162194Y0268528D01*
X0162354Y0268570D01*
X0162516Y0268608D01*
X0162679Y0268643D01*
X0162842Y0268673D01*
X0163006Y0268700D01*
X0163171Y0268722D01*
X0163336Y0268740D01*
X0163502Y0268755D01*
X0163668Y0268765D01*
X0163834Y0268771D01*
X0164000Y0268773D01*
X0164166Y0268771D01*
X0164332Y0268765D01*
X0164498Y0268755D01*
X0164664Y0268740D01*
X0164829Y0268722D01*
X0164994Y0268700D01*
X0165158Y0268673D01*
X0165321Y0268643D01*
X0165484Y0268608D01*
X0165646Y0268570D01*
X0165806Y0268528D01*
X0165966Y0268481D01*
X0166125Y0268431D01*
X0166282Y0268377D01*
X0166438Y0268319D01*
X0166592Y0268257D01*
X0166745Y0268192D01*
X0166896Y0268123D01*
X0167045Y0268050D01*
X0167193Y0267973D01*
X0167338Y0267893D01*
X0167482Y0267809D01*
X0167624Y0267722D01*
X0167763Y0267632D01*
X0167900Y0267538D01*
X0168035Y0267440D01*
X0168167Y0267339D01*
X0168297Y0267236D01*
X0168424Y0267129D01*
X0168548Y0267018D01*
X0168670Y0266905D01*
X0168789Y0266789D01*
X0168905Y0266670D01*
X0169018Y0266548D01*
X0169129Y0266424D01*
X0169236Y0266297D01*
X0169339Y0266167D01*
X0169440Y0266035D01*
X0169538Y0265900D01*
X0169632Y0265763D01*
X0169722Y0265624D01*
X0169809Y0265482D01*
X0169893Y0265338D01*
X0169973Y0265193D01*
X0170050Y0265045D01*
X0170123Y0264896D01*
X0170192Y0264745D01*
X0170257Y0264592D01*
X0170319Y0264438D01*
X0170377Y0264282D01*
X0170431Y0264125D01*
X0170481Y0263966D01*
X0170528Y0263806D01*
X0170570Y0263646D01*
X0170608Y0263484D01*
X0170643Y0263321D01*
X0170673Y0263158D01*
X0170700Y0262994D01*
X0170722Y0262829D01*
X0170740Y0262664D01*
X0170755Y0262498D01*
X0170765Y0262332D01*
X0170771Y0262166D01*
X0170773Y0262000D01*
X0170771Y0261834D01*
X0170765Y0261668D01*
X0170755Y0261502D01*
X0170740Y0261336D01*
X0170722Y0261171D01*
X0170700Y0261006D01*
X0170673Y0260842D01*
X0170643Y0260679D01*
X0170608Y0260516D01*
X0170570Y0260354D01*
X0170528Y0260194D01*
X0170481Y0260034D01*
X0170431Y0259875D01*
X0170377Y0259718D01*
X0170319Y0259562D01*
X0170257Y0259408D01*
X0170192Y0259255D01*
X0170123Y0259104D01*
X0170050Y0258955D01*
X0169973Y0258807D01*
X0169893Y0258662D01*
X0169809Y0258518D01*
X0169722Y0258376D01*
X0169632Y0258237D01*
X0169538Y0258100D01*
X0169440Y0257965D01*
X0169339Y0257833D01*
X0169236Y0257703D01*
X0169129Y0257576D01*
X0169018Y0257452D01*
X0168905Y0257330D01*
X0168789Y0257211D01*
X0168670Y0257095D01*
X0168548Y0256982D01*
X0168424Y0256871D01*
X0168297Y0256764D01*
X0168167Y0256661D01*
X0168035Y0256560D01*
X0167900Y0256462D01*
X0167763Y0256368D01*
X0167624Y0256278D01*
X0167482Y0256191D01*
X0167338Y0256107D01*
X0167193Y0256027D01*
X0167045Y0255950D01*
X0166896Y0255877D01*
X0166745Y0255808D01*
X0166592Y0255743D01*
X0166438Y0255681D01*
X0166282Y0255623D01*
X0166125Y0255569D01*
X0165966Y0255519D01*
X0165806Y0255472D01*
X0165646Y0255430D01*
X0165484Y0255392D01*
X0165321Y0255357D01*
X0165158Y0255327D01*
X0164994Y0255300D01*
X0164829Y0255278D01*
X0164664Y0255260D01*
X0164498Y0255245D01*
X0164332Y0255235D01*
X0164166Y0255229D01*
X0164000Y0255227D01*
X0163834Y0255229D01*
X0163668Y0255235D01*
X0163502Y0255245D01*
X0163336Y0255260D01*
X0163171Y0255278D01*
X0163006Y0255300D01*
X0162842Y0255327D01*
X0162679Y0255357D01*
X0162516Y0255392D01*
X0162354Y0255430D01*
X0162194Y0255472D01*
X0162034Y0255519D01*
X0161875Y0255569D01*
X0161718Y0255623D01*
X0161562Y0255681D01*
X0161408Y0255743D01*
X0161255Y0255808D01*
X0161104Y0255877D01*
X0160955Y0255950D01*
X0160807Y0256027D01*
X0160662Y0256107D01*
X0160518Y0256191D01*
X0160376Y0256278D01*
X0160237Y0256368D01*
X0160100Y0256462D01*
X0159965Y0256560D01*
X0159833Y0256661D01*
X0159703Y0256764D01*
X0159576Y0256871D01*
X0159452Y0256982D01*
X0159330Y0257095D01*
X0159211Y0257211D01*
X0159095Y0257330D01*
X0158982Y0257452D01*
X0158871Y0257576D01*
X0158764Y0257703D01*
X0158661Y0257833D01*
X0158560Y0257965D01*
X0158462Y0258100D01*
X0158368Y0258237D01*
X0158278Y0258376D01*
X0158191Y0258518D01*
X0158107Y0258662D01*
X0158027Y0258807D01*
X0157950Y0258955D01*
X0157877Y0259104D01*
X0157808Y0259255D01*
X0157743Y0259408D01*
X0157681Y0259562D01*
X0157623Y0259718D01*
X0157569Y0259875D01*
X0157519Y0260034D01*
X0157472Y0260194D01*
X0157430Y0260354D01*
X0157392Y0260516D01*
X0157357Y0260679D01*
X0157327Y0260842D01*
X0157300Y0261006D01*
X0157278Y0261171D01*
X0157260Y0261336D01*
X0157245Y0261502D01*
X0157235Y0261668D01*
X0157229Y0261834D01*
X0157227Y0262000D01*
X0170299Y0271843D02*
X0173843Y0271843D01*
X0108598Y0262693D02*
X0105843Y0265843D01*
X0105843Y0262299D01*
X0107024Y0261118D01*
X0108598Y0262693D01*
X0105843Y0262299D02*
X0102299Y0265843D01*
X0105843Y0265843D01*
X0102299Y0265843D02*
X0086157Y0265843D01*
X0086157Y0246157D01*
X0105843Y0246157D01*
X0105843Y0262299D01*
X0089227Y0256000D02*
X0089229Y0256166D01*
X0089235Y0256332D01*
X0089245Y0256498D01*
X0089260Y0256664D01*
X0089278Y0256829D01*
X0089300Y0256994D01*
X0089327Y0257158D01*
X0089357Y0257321D01*
X0089392Y0257484D01*
X0089430Y0257646D01*
X0089472Y0257806D01*
X0089519Y0257966D01*
X0089569Y0258125D01*
X0089623Y0258282D01*
X0089681Y0258438D01*
X0089743Y0258592D01*
X0089808Y0258745D01*
X0089877Y0258896D01*
X0089950Y0259045D01*
X0090027Y0259193D01*
X0090107Y0259338D01*
X0090191Y0259482D01*
X0090278Y0259624D01*
X0090368Y0259763D01*
X0090462Y0259900D01*
X0090560Y0260035D01*
X0090661Y0260167D01*
X0090764Y0260297D01*
X0090871Y0260424D01*
X0090982Y0260548D01*
X0091095Y0260670D01*
X0091211Y0260789D01*
X0091330Y0260905D01*
X0091452Y0261018D01*
X0091576Y0261129D01*
X0091703Y0261236D01*
X0091833Y0261339D01*
X0091965Y0261440D01*
X0092100Y0261538D01*
X0092237Y0261632D01*
X0092376Y0261722D01*
X0092518Y0261809D01*
X0092662Y0261893D01*
X0092807Y0261973D01*
X0092955Y0262050D01*
X0093104Y0262123D01*
X0093255Y0262192D01*
X0093408Y0262257D01*
X0093562Y0262319D01*
X0093718Y0262377D01*
X0093875Y0262431D01*
X0094034Y0262481D01*
X0094194Y0262528D01*
X0094354Y0262570D01*
X0094516Y0262608D01*
X0094679Y0262643D01*
X0094842Y0262673D01*
X0095006Y0262700D01*
X0095171Y0262722D01*
X0095336Y0262740D01*
X0095502Y0262755D01*
X0095668Y0262765D01*
X0095834Y0262771D01*
X0096000Y0262773D01*
X0096166Y0262771D01*
X0096332Y0262765D01*
X0096498Y0262755D01*
X0096664Y0262740D01*
X0096829Y0262722D01*
X0096994Y0262700D01*
X0097158Y0262673D01*
X0097321Y0262643D01*
X0097484Y0262608D01*
X0097646Y0262570D01*
X0097806Y0262528D01*
X0097966Y0262481D01*
X0098125Y0262431D01*
X0098282Y0262377D01*
X0098438Y0262319D01*
X0098592Y0262257D01*
X0098745Y0262192D01*
X0098896Y0262123D01*
X0099045Y0262050D01*
X0099193Y0261973D01*
X0099338Y0261893D01*
X0099482Y0261809D01*
X0099624Y0261722D01*
X0099763Y0261632D01*
X0099900Y0261538D01*
X0100035Y0261440D01*
X0100167Y0261339D01*
X0100297Y0261236D01*
X0100424Y0261129D01*
X0100548Y0261018D01*
X0100670Y0260905D01*
X0100789Y0260789D01*
X0100905Y0260670D01*
X0101018Y0260548D01*
X0101129Y0260424D01*
X0101236Y0260297D01*
X0101339Y0260167D01*
X0101440Y0260035D01*
X0101538Y0259900D01*
X0101632Y0259763D01*
X0101722Y0259624D01*
X0101809Y0259482D01*
X0101893Y0259338D01*
X0101973Y0259193D01*
X0102050Y0259045D01*
X0102123Y0258896D01*
X0102192Y0258745D01*
X0102257Y0258592D01*
X0102319Y0258438D01*
X0102377Y0258282D01*
X0102431Y0258125D01*
X0102481Y0257966D01*
X0102528Y0257806D01*
X0102570Y0257646D01*
X0102608Y0257484D01*
X0102643Y0257321D01*
X0102673Y0257158D01*
X0102700Y0256994D01*
X0102722Y0256829D01*
X0102740Y0256664D01*
X0102755Y0256498D01*
X0102765Y0256332D01*
X0102771Y0256166D01*
X0102773Y0256000D01*
X0102771Y0255834D01*
X0102765Y0255668D01*
X0102755Y0255502D01*
X0102740Y0255336D01*
X0102722Y0255171D01*
X0102700Y0255006D01*
X0102673Y0254842D01*
X0102643Y0254679D01*
X0102608Y0254516D01*
X0102570Y0254354D01*
X0102528Y0254194D01*
X0102481Y0254034D01*
X0102431Y0253875D01*
X0102377Y0253718D01*
X0102319Y0253562D01*
X0102257Y0253408D01*
X0102192Y0253255D01*
X0102123Y0253104D01*
X0102050Y0252955D01*
X0101973Y0252807D01*
X0101893Y0252662D01*
X0101809Y0252518D01*
X0101722Y0252376D01*
X0101632Y0252237D01*
X0101538Y0252100D01*
X0101440Y0251965D01*
X0101339Y0251833D01*
X0101236Y0251703D01*
X0101129Y0251576D01*
X0101018Y0251452D01*
X0100905Y0251330D01*
X0100789Y0251211D01*
X0100670Y0251095D01*
X0100548Y0250982D01*
X0100424Y0250871D01*
X0100297Y0250764D01*
X0100167Y0250661D01*
X0100035Y0250560D01*
X0099900Y0250462D01*
X0099763Y0250368D01*
X0099624Y0250278D01*
X0099482Y0250191D01*
X0099338Y0250107D01*
X0099193Y0250027D01*
X0099045Y0249950D01*
X0098896Y0249877D01*
X0098745Y0249808D01*
X0098592Y0249743D01*
X0098438Y0249681D01*
X0098282Y0249623D01*
X0098125Y0249569D01*
X0097966Y0249519D01*
X0097806Y0249472D01*
X0097646Y0249430D01*
X0097484Y0249392D01*
X0097321Y0249357D01*
X0097158Y0249327D01*
X0096994Y0249300D01*
X0096829Y0249278D01*
X0096664Y0249260D01*
X0096498Y0249245D01*
X0096332Y0249235D01*
X0096166Y0249229D01*
X0096000Y0249227D01*
X0095834Y0249229D01*
X0095668Y0249235D01*
X0095502Y0249245D01*
X0095336Y0249260D01*
X0095171Y0249278D01*
X0095006Y0249300D01*
X0094842Y0249327D01*
X0094679Y0249357D01*
X0094516Y0249392D01*
X0094354Y0249430D01*
X0094194Y0249472D01*
X0094034Y0249519D01*
X0093875Y0249569D01*
X0093718Y0249623D01*
X0093562Y0249681D01*
X0093408Y0249743D01*
X0093255Y0249808D01*
X0093104Y0249877D01*
X0092955Y0249950D01*
X0092807Y0250027D01*
X0092662Y0250107D01*
X0092518Y0250191D01*
X0092376Y0250278D01*
X0092237Y0250368D01*
X0092100Y0250462D01*
X0091965Y0250560D01*
X0091833Y0250661D01*
X0091703Y0250764D01*
X0091576Y0250871D01*
X0091452Y0250982D01*
X0091330Y0251095D01*
X0091211Y0251211D01*
X0091095Y0251330D01*
X0090982Y0251452D01*
X0090871Y0251576D01*
X0090764Y0251703D01*
X0090661Y0251833D01*
X0090560Y0251965D01*
X0090462Y0252100D01*
X0090368Y0252237D01*
X0090278Y0252376D01*
X0090191Y0252518D01*
X0090107Y0252662D01*
X0090027Y0252807D01*
X0089950Y0252955D01*
X0089877Y0253104D01*
X0089808Y0253255D01*
X0089743Y0253408D01*
X0089681Y0253562D01*
X0089623Y0253718D01*
X0089569Y0253875D01*
X0089519Y0254034D01*
X0089472Y0254194D01*
X0089430Y0254354D01*
X0089392Y0254516D01*
X0089357Y0254679D01*
X0089327Y0254842D01*
X0089300Y0255006D01*
X0089278Y0255171D01*
X0089260Y0255336D01*
X0089245Y0255502D01*
X0089235Y0255668D01*
X0089229Y0255834D01*
X0089227Y0256000D01*
X0070843Y0260843D02*
X0051157Y0260843D01*
X0051157Y0244701D01*
X0049976Y0245882D01*
X0048402Y0244307D01*
X0051157Y0241157D01*
X0051157Y0244701D01*
X0054701Y0241157D01*
X0051157Y0241157D01*
X0054701Y0241157D02*
X0070843Y0241157D01*
X0070843Y0260843D01*
X0054227Y0251000D02*
X0054229Y0251166D01*
X0054235Y0251332D01*
X0054245Y0251498D01*
X0054260Y0251664D01*
X0054278Y0251829D01*
X0054300Y0251994D01*
X0054327Y0252158D01*
X0054357Y0252321D01*
X0054392Y0252484D01*
X0054430Y0252646D01*
X0054472Y0252806D01*
X0054519Y0252966D01*
X0054569Y0253125D01*
X0054623Y0253282D01*
X0054681Y0253438D01*
X0054743Y0253592D01*
X0054808Y0253745D01*
X0054877Y0253896D01*
X0054950Y0254045D01*
X0055027Y0254193D01*
X0055107Y0254338D01*
X0055191Y0254482D01*
X0055278Y0254624D01*
X0055368Y0254763D01*
X0055462Y0254900D01*
X0055560Y0255035D01*
X0055661Y0255167D01*
X0055764Y0255297D01*
X0055871Y0255424D01*
X0055982Y0255548D01*
X0056095Y0255670D01*
X0056211Y0255789D01*
X0056330Y0255905D01*
X0056452Y0256018D01*
X0056576Y0256129D01*
X0056703Y0256236D01*
X0056833Y0256339D01*
X0056965Y0256440D01*
X0057100Y0256538D01*
X0057237Y0256632D01*
X0057376Y0256722D01*
X0057518Y0256809D01*
X0057662Y0256893D01*
X0057807Y0256973D01*
X0057955Y0257050D01*
X0058104Y0257123D01*
X0058255Y0257192D01*
X0058408Y0257257D01*
X0058562Y0257319D01*
X0058718Y0257377D01*
X0058875Y0257431D01*
X0059034Y0257481D01*
X0059194Y0257528D01*
X0059354Y0257570D01*
X0059516Y0257608D01*
X0059679Y0257643D01*
X0059842Y0257673D01*
X0060006Y0257700D01*
X0060171Y0257722D01*
X0060336Y0257740D01*
X0060502Y0257755D01*
X0060668Y0257765D01*
X0060834Y0257771D01*
X0061000Y0257773D01*
X0061166Y0257771D01*
X0061332Y0257765D01*
X0061498Y0257755D01*
X0061664Y0257740D01*
X0061829Y0257722D01*
X0061994Y0257700D01*
X0062158Y0257673D01*
X0062321Y0257643D01*
X0062484Y0257608D01*
X0062646Y0257570D01*
X0062806Y0257528D01*
X0062966Y0257481D01*
X0063125Y0257431D01*
X0063282Y0257377D01*
X0063438Y0257319D01*
X0063592Y0257257D01*
X0063745Y0257192D01*
X0063896Y0257123D01*
X0064045Y0257050D01*
X0064193Y0256973D01*
X0064338Y0256893D01*
X0064482Y0256809D01*
X0064624Y0256722D01*
X0064763Y0256632D01*
X0064900Y0256538D01*
X0065035Y0256440D01*
X0065167Y0256339D01*
X0065297Y0256236D01*
X0065424Y0256129D01*
X0065548Y0256018D01*
X0065670Y0255905D01*
X0065789Y0255789D01*
X0065905Y0255670D01*
X0066018Y0255548D01*
X0066129Y0255424D01*
X0066236Y0255297D01*
X0066339Y0255167D01*
X0066440Y0255035D01*
X0066538Y0254900D01*
X0066632Y0254763D01*
X0066722Y0254624D01*
X0066809Y0254482D01*
X0066893Y0254338D01*
X0066973Y0254193D01*
X0067050Y0254045D01*
X0067123Y0253896D01*
X0067192Y0253745D01*
X0067257Y0253592D01*
X0067319Y0253438D01*
X0067377Y0253282D01*
X0067431Y0253125D01*
X0067481Y0252966D01*
X0067528Y0252806D01*
X0067570Y0252646D01*
X0067608Y0252484D01*
X0067643Y0252321D01*
X0067673Y0252158D01*
X0067700Y0251994D01*
X0067722Y0251829D01*
X0067740Y0251664D01*
X0067755Y0251498D01*
X0067765Y0251332D01*
X0067771Y0251166D01*
X0067773Y0251000D01*
X0067771Y0250834D01*
X0067765Y0250668D01*
X0067755Y0250502D01*
X0067740Y0250336D01*
X0067722Y0250171D01*
X0067700Y0250006D01*
X0067673Y0249842D01*
X0067643Y0249679D01*
X0067608Y0249516D01*
X0067570Y0249354D01*
X0067528Y0249194D01*
X0067481Y0249034D01*
X0067431Y0248875D01*
X0067377Y0248718D01*
X0067319Y0248562D01*
X0067257Y0248408D01*
X0067192Y0248255D01*
X0067123Y0248104D01*
X0067050Y0247955D01*
X0066973Y0247807D01*
X0066893Y0247662D01*
X0066809Y0247518D01*
X0066722Y0247376D01*
X0066632Y0247237D01*
X0066538Y0247100D01*
X0066440Y0246965D01*
X0066339Y0246833D01*
X0066236Y0246703D01*
X0066129Y0246576D01*
X0066018Y0246452D01*
X0065905Y0246330D01*
X0065789Y0246211D01*
X0065670Y0246095D01*
X0065548Y0245982D01*
X0065424Y0245871D01*
X0065297Y0245764D01*
X0065167Y0245661D01*
X0065035Y0245560D01*
X0064900Y0245462D01*
X0064763Y0245368D01*
X0064624Y0245278D01*
X0064482Y0245191D01*
X0064338Y0245107D01*
X0064193Y0245027D01*
X0064045Y0244950D01*
X0063896Y0244877D01*
X0063745Y0244808D01*
X0063592Y0244743D01*
X0063438Y0244681D01*
X0063282Y0244623D01*
X0063125Y0244569D01*
X0062966Y0244519D01*
X0062806Y0244472D01*
X0062646Y0244430D01*
X0062484Y0244392D01*
X0062321Y0244357D01*
X0062158Y0244327D01*
X0061994Y0244300D01*
X0061829Y0244278D01*
X0061664Y0244260D01*
X0061498Y0244245D01*
X0061332Y0244235D01*
X0061166Y0244229D01*
X0061000Y0244227D01*
X0060834Y0244229D01*
X0060668Y0244235D01*
X0060502Y0244245D01*
X0060336Y0244260D01*
X0060171Y0244278D01*
X0060006Y0244300D01*
X0059842Y0244327D01*
X0059679Y0244357D01*
X0059516Y0244392D01*
X0059354Y0244430D01*
X0059194Y0244472D01*
X0059034Y0244519D01*
X0058875Y0244569D01*
X0058718Y0244623D01*
X0058562Y0244681D01*
X0058408Y0244743D01*
X0058255Y0244808D01*
X0058104Y0244877D01*
X0057955Y0244950D01*
X0057807Y0245027D01*
X0057662Y0245107D01*
X0057518Y0245191D01*
X0057376Y0245278D01*
X0057237Y0245368D01*
X0057100Y0245462D01*
X0056965Y0245560D01*
X0056833Y0245661D01*
X0056703Y0245764D01*
X0056576Y0245871D01*
X0056452Y0245982D01*
X0056330Y0246095D01*
X0056211Y0246211D01*
X0056095Y0246330D01*
X0055982Y0246452D01*
X0055871Y0246576D01*
X0055764Y0246703D01*
X0055661Y0246833D01*
X0055560Y0246965D01*
X0055462Y0247100D01*
X0055368Y0247237D01*
X0055278Y0247376D01*
X0055191Y0247518D01*
X0055107Y0247662D01*
X0055027Y0247807D01*
X0054950Y0247955D01*
X0054877Y0248104D01*
X0054808Y0248255D01*
X0054743Y0248408D01*
X0054681Y0248562D01*
X0054623Y0248718D01*
X0054569Y0248875D01*
X0054519Y0249034D01*
X0054472Y0249194D01*
X0054430Y0249354D01*
X0054392Y0249516D01*
X0054357Y0249679D01*
X0054327Y0249842D01*
X0054300Y0250006D01*
X0054278Y0250171D01*
X0054260Y0250336D01*
X0054245Y0250502D01*
X0054235Y0250668D01*
X0054229Y0250834D01*
X0054227Y0251000D01*
X0121157Y0210843D02*
X0121157Y0207299D01*
X0124701Y0210843D01*
X0125882Y0212024D01*
X0124307Y0213598D01*
X0121157Y0210843D01*
X0124701Y0210843D01*
X0140843Y0210843D01*
X0140843Y0191157D01*
X0121157Y0191157D01*
X0121157Y0207299D01*
X0124227Y0201000D02*
X0124229Y0201166D01*
X0124235Y0201332D01*
X0124245Y0201498D01*
X0124260Y0201664D01*
X0124278Y0201829D01*
X0124300Y0201994D01*
X0124327Y0202158D01*
X0124357Y0202321D01*
X0124392Y0202484D01*
X0124430Y0202646D01*
X0124472Y0202806D01*
X0124519Y0202966D01*
X0124569Y0203125D01*
X0124623Y0203282D01*
X0124681Y0203438D01*
X0124743Y0203592D01*
X0124808Y0203745D01*
X0124877Y0203896D01*
X0124950Y0204045D01*
X0125027Y0204193D01*
X0125107Y0204338D01*
X0125191Y0204482D01*
X0125278Y0204624D01*
X0125368Y0204763D01*
X0125462Y0204900D01*
X0125560Y0205035D01*
X0125661Y0205167D01*
X0125764Y0205297D01*
X0125871Y0205424D01*
X0125982Y0205548D01*
X0126095Y0205670D01*
X0126211Y0205789D01*
X0126330Y0205905D01*
X0126452Y0206018D01*
X0126576Y0206129D01*
X0126703Y0206236D01*
X0126833Y0206339D01*
X0126965Y0206440D01*
X0127100Y0206538D01*
X0127237Y0206632D01*
X0127376Y0206722D01*
X0127518Y0206809D01*
X0127662Y0206893D01*
X0127807Y0206973D01*
X0127955Y0207050D01*
X0128104Y0207123D01*
X0128255Y0207192D01*
X0128408Y0207257D01*
X0128562Y0207319D01*
X0128718Y0207377D01*
X0128875Y0207431D01*
X0129034Y0207481D01*
X0129194Y0207528D01*
X0129354Y0207570D01*
X0129516Y0207608D01*
X0129679Y0207643D01*
X0129842Y0207673D01*
X0130006Y0207700D01*
X0130171Y0207722D01*
X0130336Y0207740D01*
X0130502Y0207755D01*
X0130668Y0207765D01*
X0130834Y0207771D01*
X0131000Y0207773D01*
X0131166Y0207771D01*
X0131332Y0207765D01*
X0131498Y0207755D01*
X0131664Y0207740D01*
X0131829Y0207722D01*
X0131994Y0207700D01*
X0132158Y0207673D01*
X0132321Y0207643D01*
X0132484Y0207608D01*
X0132646Y0207570D01*
X0132806Y0207528D01*
X0132966Y0207481D01*
X0133125Y0207431D01*
X0133282Y0207377D01*
X0133438Y0207319D01*
X0133592Y0207257D01*
X0133745Y0207192D01*
X0133896Y0207123D01*
X0134045Y0207050D01*
X0134193Y0206973D01*
X0134338Y0206893D01*
X0134482Y0206809D01*
X0134624Y0206722D01*
X0134763Y0206632D01*
X0134900Y0206538D01*
X0135035Y0206440D01*
X0135167Y0206339D01*
X0135297Y0206236D01*
X0135424Y0206129D01*
X0135548Y0206018D01*
X0135670Y0205905D01*
X0135789Y0205789D01*
X0135905Y0205670D01*
X0136018Y0205548D01*
X0136129Y0205424D01*
X0136236Y0205297D01*
X0136339Y0205167D01*
X0136440Y0205035D01*
X0136538Y0204900D01*
X0136632Y0204763D01*
X0136722Y0204624D01*
X0136809Y0204482D01*
X0136893Y0204338D01*
X0136973Y0204193D01*
X0137050Y0204045D01*
X0137123Y0203896D01*
X0137192Y0203745D01*
X0137257Y0203592D01*
X0137319Y0203438D01*
X0137377Y0203282D01*
X0137431Y0203125D01*
X0137481Y0202966D01*
X0137528Y0202806D01*
X0137570Y0202646D01*
X0137608Y0202484D01*
X0137643Y0202321D01*
X0137673Y0202158D01*
X0137700Y0201994D01*
X0137722Y0201829D01*
X0137740Y0201664D01*
X0137755Y0201498D01*
X0137765Y0201332D01*
X0137771Y0201166D01*
X0137773Y0201000D01*
X0137771Y0200834D01*
X0137765Y0200668D01*
X0137755Y0200502D01*
X0137740Y0200336D01*
X0137722Y0200171D01*
X0137700Y0200006D01*
X0137673Y0199842D01*
X0137643Y0199679D01*
X0137608Y0199516D01*
X0137570Y0199354D01*
X0137528Y0199194D01*
X0137481Y0199034D01*
X0137431Y0198875D01*
X0137377Y0198718D01*
X0137319Y0198562D01*
X0137257Y0198408D01*
X0137192Y0198255D01*
X0137123Y0198104D01*
X0137050Y0197955D01*
X0136973Y0197807D01*
X0136893Y0197662D01*
X0136809Y0197518D01*
X0136722Y0197376D01*
X0136632Y0197237D01*
X0136538Y0197100D01*
X0136440Y0196965D01*
X0136339Y0196833D01*
X0136236Y0196703D01*
X0136129Y0196576D01*
X0136018Y0196452D01*
X0135905Y0196330D01*
X0135789Y0196211D01*
X0135670Y0196095D01*
X0135548Y0195982D01*
X0135424Y0195871D01*
X0135297Y0195764D01*
X0135167Y0195661D01*
X0135035Y0195560D01*
X0134900Y0195462D01*
X0134763Y0195368D01*
X0134624Y0195278D01*
X0134482Y0195191D01*
X0134338Y0195107D01*
X0134193Y0195027D01*
X0134045Y0194950D01*
X0133896Y0194877D01*
X0133745Y0194808D01*
X0133592Y0194743D01*
X0133438Y0194681D01*
X0133282Y0194623D01*
X0133125Y0194569D01*
X0132966Y0194519D01*
X0132806Y0194472D01*
X0132646Y0194430D01*
X0132484Y0194392D01*
X0132321Y0194357D01*
X0132158Y0194327D01*
X0131994Y0194300D01*
X0131829Y0194278D01*
X0131664Y0194260D01*
X0131498Y0194245D01*
X0131332Y0194235D01*
X0131166Y0194229D01*
X0131000Y0194227D01*
X0130834Y0194229D01*
X0130668Y0194235D01*
X0130502Y0194245D01*
X0130336Y0194260D01*
X0130171Y0194278D01*
X0130006Y0194300D01*
X0129842Y0194327D01*
X0129679Y0194357D01*
X0129516Y0194392D01*
X0129354Y0194430D01*
X0129194Y0194472D01*
X0129034Y0194519D01*
X0128875Y0194569D01*
X0128718Y0194623D01*
X0128562Y0194681D01*
X0128408Y0194743D01*
X0128255Y0194808D01*
X0128104Y0194877D01*
X0127955Y0194950D01*
X0127807Y0195027D01*
X0127662Y0195107D01*
X0127518Y0195191D01*
X0127376Y0195278D01*
X0127237Y0195368D01*
X0127100Y0195462D01*
X0126965Y0195560D01*
X0126833Y0195661D01*
X0126703Y0195764D01*
X0126576Y0195871D01*
X0126452Y0195982D01*
X0126330Y0196095D01*
X0126211Y0196211D01*
X0126095Y0196330D01*
X0125982Y0196452D01*
X0125871Y0196576D01*
X0125764Y0196703D01*
X0125661Y0196833D01*
X0125560Y0196965D01*
X0125462Y0197100D01*
X0125368Y0197237D01*
X0125278Y0197376D01*
X0125191Y0197518D01*
X0125107Y0197662D01*
X0125027Y0197807D01*
X0124950Y0197955D01*
X0124877Y0198104D01*
X0124808Y0198255D01*
X0124743Y0198408D01*
X0124681Y0198562D01*
X0124623Y0198718D01*
X0124569Y0198875D01*
X0124519Y0199034D01*
X0124472Y0199194D01*
X0124430Y0199354D01*
X0124392Y0199516D01*
X0124357Y0199679D01*
X0124327Y0199842D01*
X0124300Y0200006D01*
X0124278Y0200171D01*
X0124260Y0200336D01*
X0124245Y0200502D01*
X0124235Y0200668D01*
X0124229Y0200834D01*
X0124227Y0201000D01*
X0115843Y0145843D02*
X0096157Y0145843D01*
X0096157Y0129701D01*
X0094976Y0130882D01*
X0093402Y0129307D01*
X0096157Y0126157D01*
X0096157Y0129701D01*
X0099701Y0126157D01*
X0096157Y0126157D01*
X0099701Y0126157D02*
X0115843Y0126157D01*
X0115843Y0145843D01*
X0099227Y0136000D02*
X0099229Y0136166D01*
X0099235Y0136332D01*
X0099245Y0136498D01*
X0099260Y0136664D01*
X0099278Y0136829D01*
X0099300Y0136994D01*
X0099327Y0137158D01*
X0099357Y0137321D01*
X0099392Y0137484D01*
X0099430Y0137646D01*
X0099472Y0137806D01*
X0099519Y0137966D01*
X0099569Y0138125D01*
X0099623Y0138282D01*
X0099681Y0138438D01*
X0099743Y0138592D01*
X0099808Y0138745D01*
X0099877Y0138896D01*
X0099950Y0139045D01*
X0100027Y0139193D01*
X0100107Y0139338D01*
X0100191Y0139482D01*
X0100278Y0139624D01*
X0100368Y0139763D01*
X0100462Y0139900D01*
X0100560Y0140035D01*
X0100661Y0140167D01*
X0100764Y0140297D01*
X0100871Y0140424D01*
X0100982Y0140548D01*
X0101095Y0140670D01*
X0101211Y0140789D01*
X0101330Y0140905D01*
X0101452Y0141018D01*
X0101576Y0141129D01*
X0101703Y0141236D01*
X0101833Y0141339D01*
X0101965Y0141440D01*
X0102100Y0141538D01*
X0102237Y0141632D01*
X0102376Y0141722D01*
X0102518Y0141809D01*
X0102662Y0141893D01*
X0102807Y0141973D01*
X0102955Y0142050D01*
X0103104Y0142123D01*
X0103255Y0142192D01*
X0103408Y0142257D01*
X0103562Y0142319D01*
X0103718Y0142377D01*
X0103875Y0142431D01*
X0104034Y0142481D01*
X0104194Y0142528D01*
X0104354Y0142570D01*
X0104516Y0142608D01*
X0104679Y0142643D01*
X0104842Y0142673D01*
X0105006Y0142700D01*
X0105171Y0142722D01*
X0105336Y0142740D01*
X0105502Y0142755D01*
X0105668Y0142765D01*
X0105834Y0142771D01*
X0106000Y0142773D01*
X0106166Y0142771D01*
X0106332Y0142765D01*
X0106498Y0142755D01*
X0106664Y0142740D01*
X0106829Y0142722D01*
X0106994Y0142700D01*
X0107158Y0142673D01*
X0107321Y0142643D01*
X0107484Y0142608D01*
X0107646Y0142570D01*
X0107806Y0142528D01*
X0107966Y0142481D01*
X0108125Y0142431D01*
X0108282Y0142377D01*
X0108438Y0142319D01*
X0108592Y0142257D01*
X0108745Y0142192D01*
X0108896Y0142123D01*
X0109045Y0142050D01*
X0109193Y0141973D01*
X0109338Y0141893D01*
X0109482Y0141809D01*
X0109624Y0141722D01*
X0109763Y0141632D01*
X0109900Y0141538D01*
X0110035Y0141440D01*
X0110167Y0141339D01*
X0110297Y0141236D01*
X0110424Y0141129D01*
X0110548Y0141018D01*
X0110670Y0140905D01*
X0110789Y0140789D01*
X0110905Y0140670D01*
X0111018Y0140548D01*
X0111129Y0140424D01*
X0111236Y0140297D01*
X0111339Y0140167D01*
X0111440Y0140035D01*
X0111538Y0139900D01*
X0111632Y0139763D01*
X0111722Y0139624D01*
X0111809Y0139482D01*
X0111893Y0139338D01*
X0111973Y0139193D01*
X0112050Y0139045D01*
X0112123Y0138896D01*
X0112192Y0138745D01*
X0112257Y0138592D01*
X0112319Y0138438D01*
X0112377Y0138282D01*
X0112431Y0138125D01*
X0112481Y0137966D01*
X0112528Y0137806D01*
X0112570Y0137646D01*
X0112608Y0137484D01*
X0112643Y0137321D01*
X0112673Y0137158D01*
X0112700Y0136994D01*
X0112722Y0136829D01*
X0112740Y0136664D01*
X0112755Y0136498D01*
X0112765Y0136332D01*
X0112771Y0136166D01*
X0112773Y0136000D01*
X0112771Y0135834D01*
X0112765Y0135668D01*
X0112755Y0135502D01*
X0112740Y0135336D01*
X0112722Y0135171D01*
X0112700Y0135006D01*
X0112673Y0134842D01*
X0112643Y0134679D01*
X0112608Y0134516D01*
X0112570Y0134354D01*
X0112528Y0134194D01*
X0112481Y0134034D01*
X0112431Y0133875D01*
X0112377Y0133718D01*
X0112319Y0133562D01*
X0112257Y0133408D01*
X0112192Y0133255D01*
X0112123Y0133104D01*
X0112050Y0132955D01*
X0111973Y0132807D01*
X0111893Y0132662D01*
X0111809Y0132518D01*
X0111722Y0132376D01*
X0111632Y0132237D01*
X0111538Y0132100D01*
X0111440Y0131965D01*
X0111339Y0131833D01*
X0111236Y0131703D01*
X0111129Y0131576D01*
X0111018Y0131452D01*
X0110905Y0131330D01*
X0110789Y0131211D01*
X0110670Y0131095D01*
X0110548Y0130982D01*
X0110424Y0130871D01*
X0110297Y0130764D01*
X0110167Y0130661D01*
X0110035Y0130560D01*
X0109900Y0130462D01*
X0109763Y0130368D01*
X0109624Y0130278D01*
X0109482Y0130191D01*
X0109338Y0130107D01*
X0109193Y0130027D01*
X0109045Y0129950D01*
X0108896Y0129877D01*
X0108745Y0129808D01*
X0108592Y0129743D01*
X0108438Y0129681D01*
X0108282Y0129623D01*
X0108125Y0129569D01*
X0107966Y0129519D01*
X0107806Y0129472D01*
X0107646Y0129430D01*
X0107484Y0129392D01*
X0107321Y0129357D01*
X0107158Y0129327D01*
X0106994Y0129300D01*
X0106829Y0129278D01*
X0106664Y0129260D01*
X0106498Y0129245D01*
X0106332Y0129235D01*
X0106166Y0129229D01*
X0106000Y0129227D01*
X0105834Y0129229D01*
X0105668Y0129235D01*
X0105502Y0129245D01*
X0105336Y0129260D01*
X0105171Y0129278D01*
X0105006Y0129300D01*
X0104842Y0129327D01*
X0104679Y0129357D01*
X0104516Y0129392D01*
X0104354Y0129430D01*
X0104194Y0129472D01*
X0104034Y0129519D01*
X0103875Y0129569D01*
X0103718Y0129623D01*
X0103562Y0129681D01*
X0103408Y0129743D01*
X0103255Y0129808D01*
X0103104Y0129877D01*
X0102955Y0129950D01*
X0102807Y0130027D01*
X0102662Y0130107D01*
X0102518Y0130191D01*
X0102376Y0130278D01*
X0102237Y0130368D01*
X0102100Y0130462D01*
X0101965Y0130560D01*
X0101833Y0130661D01*
X0101703Y0130764D01*
X0101576Y0130871D01*
X0101452Y0130982D01*
X0101330Y0131095D01*
X0101211Y0131211D01*
X0101095Y0131330D01*
X0100982Y0131452D01*
X0100871Y0131576D01*
X0100764Y0131703D01*
X0100661Y0131833D01*
X0100560Y0131965D01*
X0100462Y0132100D01*
X0100368Y0132237D01*
X0100278Y0132376D01*
X0100191Y0132518D01*
X0100107Y0132662D01*
X0100027Y0132807D01*
X0099950Y0132955D01*
X0099877Y0133104D01*
X0099808Y0133255D01*
X0099743Y0133408D01*
X0099681Y0133562D01*
X0099623Y0133718D01*
X0099569Y0133875D01*
X0099519Y0134034D01*
X0099472Y0134194D01*
X0099430Y0134354D01*
X0099392Y0134516D01*
X0099357Y0134679D01*
X0099327Y0134842D01*
X0099300Y0135006D01*
X0099278Y0135171D01*
X0099260Y0135336D01*
X0099245Y0135502D01*
X0099235Y0135668D01*
X0099229Y0135834D01*
X0099227Y0136000D01*
X0131157Y0115843D02*
X0150843Y0115843D01*
X0150843Y0096157D01*
X0134701Y0096157D01*
X0131157Y0099701D01*
X0129976Y0100882D01*
X0128402Y0099307D01*
X0131157Y0096157D01*
X0131157Y0099701D01*
X0131157Y0115843D01*
X0141157Y0126157D02*
X0160843Y0126157D01*
X0160843Y0142299D01*
X0162024Y0141118D01*
X0163598Y0142693D01*
X0160843Y0145843D01*
X0160843Y0142299D01*
X0157299Y0145843D01*
X0160843Y0145843D01*
X0157299Y0145843D02*
X0141157Y0145843D01*
X0141157Y0126157D01*
X0144227Y0136000D02*
X0144229Y0136166D01*
X0144235Y0136332D01*
X0144245Y0136498D01*
X0144260Y0136664D01*
X0144278Y0136829D01*
X0144300Y0136994D01*
X0144327Y0137158D01*
X0144357Y0137321D01*
X0144392Y0137484D01*
X0144430Y0137646D01*
X0144472Y0137806D01*
X0144519Y0137966D01*
X0144569Y0138125D01*
X0144623Y0138282D01*
X0144681Y0138438D01*
X0144743Y0138592D01*
X0144808Y0138745D01*
X0144877Y0138896D01*
X0144950Y0139045D01*
X0145027Y0139193D01*
X0145107Y0139338D01*
X0145191Y0139482D01*
X0145278Y0139624D01*
X0145368Y0139763D01*
X0145462Y0139900D01*
X0145560Y0140035D01*
X0145661Y0140167D01*
X0145764Y0140297D01*
X0145871Y0140424D01*
X0145982Y0140548D01*
X0146095Y0140670D01*
X0146211Y0140789D01*
X0146330Y0140905D01*
X0146452Y0141018D01*
X0146576Y0141129D01*
X0146703Y0141236D01*
X0146833Y0141339D01*
X0146965Y0141440D01*
X0147100Y0141538D01*
X0147237Y0141632D01*
X0147376Y0141722D01*
X0147518Y0141809D01*
X0147662Y0141893D01*
X0147807Y0141973D01*
X0147955Y0142050D01*
X0148104Y0142123D01*
X0148255Y0142192D01*
X0148408Y0142257D01*
X0148562Y0142319D01*
X0148718Y0142377D01*
X0148875Y0142431D01*
X0149034Y0142481D01*
X0149194Y0142528D01*
X0149354Y0142570D01*
X0149516Y0142608D01*
X0149679Y0142643D01*
X0149842Y0142673D01*
X0150006Y0142700D01*
X0150171Y0142722D01*
X0150336Y0142740D01*
X0150502Y0142755D01*
X0150668Y0142765D01*
X0150834Y0142771D01*
X0151000Y0142773D01*
X0151166Y0142771D01*
X0151332Y0142765D01*
X0151498Y0142755D01*
X0151664Y0142740D01*
X0151829Y0142722D01*
X0151994Y0142700D01*
X0152158Y0142673D01*
X0152321Y0142643D01*
X0152484Y0142608D01*
X0152646Y0142570D01*
X0152806Y0142528D01*
X0152966Y0142481D01*
X0153125Y0142431D01*
X0153282Y0142377D01*
X0153438Y0142319D01*
X0153592Y0142257D01*
X0153745Y0142192D01*
X0153896Y0142123D01*
X0154045Y0142050D01*
X0154193Y0141973D01*
X0154338Y0141893D01*
X0154482Y0141809D01*
X0154624Y0141722D01*
X0154763Y0141632D01*
X0154900Y0141538D01*
X0155035Y0141440D01*
X0155167Y0141339D01*
X0155297Y0141236D01*
X0155424Y0141129D01*
X0155548Y0141018D01*
X0155670Y0140905D01*
X0155789Y0140789D01*
X0155905Y0140670D01*
X0156018Y0140548D01*
X0156129Y0140424D01*
X0156236Y0140297D01*
X0156339Y0140167D01*
X0156440Y0140035D01*
X0156538Y0139900D01*
X0156632Y0139763D01*
X0156722Y0139624D01*
X0156809Y0139482D01*
X0156893Y0139338D01*
X0156973Y0139193D01*
X0157050Y0139045D01*
X0157123Y0138896D01*
X0157192Y0138745D01*
X0157257Y0138592D01*
X0157319Y0138438D01*
X0157377Y0138282D01*
X0157431Y0138125D01*
X0157481Y0137966D01*
X0157528Y0137806D01*
X0157570Y0137646D01*
X0157608Y0137484D01*
X0157643Y0137321D01*
X0157673Y0137158D01*
X0157700Y0136994D01*
X0157722Y0136829D01*
X0157740Y0136664D01*
X0157755Y0136498D01*
X0157765Y0136332D01*
X0157771Y0136166D01*
X0157773Y0136000D01*
X0157771Y0135834D01*
X0157765Y0135668D01*
X0157755Y0135502D01*
X0157740Y0135336D01*
X0157722Y0135171D01*
X0157700Y0135006D01*
X0157673Y0134842D01*
X0157643Y0134679D01*
X0157608Y0134516D01*
X0157570Y0134354D01*
X0157528Y0134194D01*
X0157481Y0134034D01*
X0157431Y0133875D01*
X0157377Y0133718D01*
X0157319Y0133562D01*
X0157257Y0133408D01*
X0157192Y0133255D01*
X0157123Y0133104D01*
X0157050Y0132955D01*
X0156973Y0132807D01*
X0156893Y0132662D01*
X0156809Y0132518D01*
X0156722Y0132376D01*
X0156632Y0132237D01*
X0156538Y0132100D01*
X0156440Y0131965D01*
X0156339Y0131833D01*
X0156236Y0131703D01*
X0156129Y0131576D01*
X0156018Y0131452D01*
X0155905Y0131330D01*
X0155789Y0131211D01*
X0155670Y0131095D01*
X0155548Y0130982D01*
X0155424Y0130871D01*
X0155297Y0130764D01*
X0155167Y0130661D01*
X0155035Y0130560D01*
X0154900Y0130462D01*
X0154763Y0130368D01*
X0154624Y0130278D01*
X0154482Y0130191D01*
X0154338Y0130107D01*
X0154193Y0130027D01*
X0154045Y0129950D01*
X0153896Y0129877D01*
X0153745Y0129808D01*
X0153592Y0129743D01*
X0153438Y0129681D01*
X0153282Y0129623D01*
X0153125Y0129569D01*
X0152966Y0129519D01*
X0152806Y0129472D01*
X0152646Y0129430D01*
X0152484Y0129392D01*
X0152321Y0129357D01*
X0152158Y0129327D01*
X0151994Y0129300D01*
X0151829Y0129278D01*
X0151664Y0129260D01*
X0151498Y0129245D01*
X0151332Y0129235D01*
X0151166Y0129229D01*
X0151000Y0129227D01*
X0150834Y0129229D01*
X0150668Y0129235D01*
X0150502Y0129245D01*
X0150336Y0129260D01*
X0150171Y0129278D01*
X0150006Y0129300D01*
X0149842Y0129327D01*
X0149679Y0129357D01*
X0149516Y0129392D01*
X0149354Y0129430D01*
X0149194Y0129472D01*
X0149034Y0129519D01*
X0148875Y0129569D01*
X0148718Y0129623D01*
X0148562Y0129681D01*
X0148408Y0129743D01*
X0148255Y0129808D01*
X0148104Y0129877D01*
X0147955Y0129950D01*
X0147807Y0130027D01*
X0147662Y0130107D01*
X0147518Y0130191D01*
X0147376Y0130278D01*
X0147237Y0130368D01*
X0147100Y0130462D01*
X0146965Y0130560D01*
X0146833Y0130661D01*
X0146703Y0130764D01*
X0146576Y0130871D01*
X0146452Y0130982D01*
X0146330Y0131095D01*
X0146211Y0131211D01*
X0146095Y0131330D01*
X0145982Y0131452D01*
X0145871Y0131576D01*
X0145764Y0131703D01*
X0145661Y0131833D01*
X0145560Y0131965D01*
X0145462Y0132100D01*
X0145368Y0132237D01*
X0145278Y0132376D01*
X0145191Y0132518D01*
X0145107Y0132662D01*
X0145027Y0132807D01*
X0144950Y0132955D01*
X0144877Y0133104D01*
X0144808Y0133255D01*
X0144743Y0133408D01*
X0144681Y0133562D01*
X0144623Y0133718D01*
X0144569Y0133875D01*
X0144519Y0134034D01*
X0144472Y0134194D01*
X0144430Y0134354D01*
X0144392Y0134516D01*
X0144357Y0134679D01*
X0144327Y0134842D01*
X0144300Y0135006D01*
X0144278Y0135171D01*
X0144260Y0135336D01*
X0144245Y0135502D01*
X0144235Y0135668D01*
X0144229Y0135834D01*
X0144227Y0136000D01*
X0134227Y0106000D02*
X0134229Y0106166D01*
X0134235Y0106332D01*
X0134245Y0106498D01*
X0134260Y0106664D01*
X0134278Y0106829D01*
X0134300Y0106994D01*
X0134327Y0107158D01*
X0134357Y0107321D01*
X0134392Y0107484D01*
X0134430Y0107646D01*
X0134472Y0107806D01*
X0134519Y0107966D01*
X0134569Y0108125D01*
X0134623Y0108282D01*
X0134681Y0108438D01*
X0134743Y0108592D01*
X0134808Y0108745D01*
X0134877Y0108896D01*
X0134950Y0109045D01*
X0135027Y0109193D01*
X0135107Y0109338D01*
X0135191Y0109482D01*
X0135278Y0109624D01*
X0135368Y0109763D01*
X0135462Y0109900D01*
X0135560Y0110035D01*
X0135661Y0110167D01*
X0135764Y0110297D01*
X0135871Y0110424D01*
X0135982Y0110548D01*
X0136095Y0110670D01*
X0136211Y0110789D01*
X0136330Y0110905D01*
X0136452Y0111018D01*
X0136576Y0111129D01*
X0136703Y0111236D01*
X0136833Y0111339D01*
X0136965Y0111440D01*
X0137100Y0111538D01*
X0137237Y0111632D01*
X0137376Y0111722D01*
X0137518Y0111809D01*
X0137662Y0111893D01*
X0137807Y0111973D01*
X0137955Y0112050D01*
X0138104Y0112123D01*
X0138255Y0112192D01*
X0138408Y0112257D01*
X0138562Y0112319D01*
X0138718Y0112377D01*
X0138875Y0112431D01*
X0139034Y0112481D01*
X0139194Y0112528D01*
X0139354Y0112570D01*
X0139516Y0112608D01*
X0139679Y0112643D01*
X0139842Y0112673D01*
X0140006Y0112700D01*
X0140171Y0112722D01*
X0140336Y0112740D01*
X0140502Y0112755D01*
X0140668Y0112765D01*
X0140834Y0112771D01*
X0141000Y0112773D01*
X0141166Y0112771D01*
X0141332Y0112765D01*
X0141498Y0112755D01*
X0141664Y0112740D01*
X0141829Y0112722D01*
X0141994Y0112700D01*
X0142158Y0112673D01*
X0142321Y0112643D01*
X0142484Y0112608D01*
X0142646Y0112570D01*
X0142806Y0112528D01*
X0142966Y0112481D01*
X0143125Y0112431D01*
X0143282Y0112377D01*
X0143438Y0112319D01*
X0143592Y0112257D01*
X0143745Y0112192D01*
X0143896Y0112123D01*
X0144045Y0112050D01*
X0144193Y0111973D01*
X0144338Y0111893D01*
X0144482Y0111809D01*
X0144624Y0111722D01*
X0144763Y0111632D01*
X0144900Y0111538D01*
X0145035Y0111440D01*
X0145167Y0111339D01*
X0145297Y0111236D01*
X0145424Y0111129D01*
X0145548Y0111018D01*
X0145670Y0110905D01*
X0145789Y0110789D01*
X0145905Y0110670D01*
X0146018Y0110548D01*
X0146129Y0110424D01*
X0146236Y0110297D01*
X0146339Y0110167D01*
X0146440Y0110035D01*
X0146538Y0109900D01*
X0146632Y0109763D01*
X0146722Y0109624D01*
X0146809Y0109482D01*
X0146893Y0109338D01*
X0146973Y0109193D01*
X0147050Y0109045D01*
X0147123Y0108896D01*
X0147192Y0108745D01*
X0147257Y0108592D01*
X0147319Y0108438D01*
X0147377Y0108282D01*
X0147431Y0108125D01*
X0147481Y0107966D01*
X0147528Y0107806D01*
X0147570Y0107646D01*
X0147608Y0107484D01*
X0147643Y0107321D01*
X0147673Y0107158D01*
X0147700Y0106994D01*
X0147722Y0106829D01*
X0147740Y0106664D01*
X0147755Y0106498D01*
X0147765Y0106332D01*
X0147771Y0106166D01*
X0147773Y0106000D01*
X0147771Y0105834D01*
X0147765Y0105668D01*
X0147755Y0105502D01*
X0147740Y0105336D01*
X0147722Y0105171D01*
X0147700Y0105006D01*
X0147673Y0104842D01*
X0147643Y0104679D01*
X0147608Y0104516D01*
X0147570Y0104354D01*
X0147528Y0104194D01*
X0147481Y0104034D01*
X0147431Y0103875D01*
X0147377Y0103718D01*
X0147319Y0103562D01*
X0147257Y0103408D01*
X0147192Y0103255D01*
X0147123Y0103104D01*
X0147050Y0102955D01*
X0146973Y0102807D01*
X0146893Y0102662D01*
X0146809Y0102518D01*
X0146722Y0102376D01*
X0146632Y0102237D01*
X0146538Y0102100D01*
X0146440Y0101965D01*
X0146339Y0101833D01*
X0146236Y0101703D01*
X0146129Y0101576D01*
X0146018Y0101452D01*
X0145905Y0101330D01*
X0145789Y0101211D01*
X0145670Y0101095D01*
X0145548Y0100982D01*
X0145424Y0100871D01*
X0145297Y0100764D01*
X0145167Y0100661D01*
X0145035Y0100560D01*
X0144900Y0100462D01*
X0144763Y0100368D01*
X0144624Y0100278D01*
X0144482Y0100191D01*
X0144338Y0100107D01*
X0144193Y0100027D01*
X0144045Y0099950D01*
X0143896Y0099877D01*
X0143745Y0099808D01*
X0143592Y0099743D01*
X0143438Y0099681D01*
X0143282Y0099623D01*
X0143125Y0099569D01*
X0142966Y0099519D01*
X0142806Y0099472D01*
X0142646Y0099430D01*
X0142484Y0099392D01*
X0142321Y0099357D01*
X0142158Y0099327D01*
X0141994Y0099300D01*
X0141829Y0099278D01*
X0141664Y0099260D01*
X0141498Y0099245D01*
X0141332Y0099235D01*
X0141166Y0099229D01*
X0141000Y0099227D01*
X0140834Y0099229D01*
X0140668Y0099235D01*
X0140502Y0099245D01*
X0140336Y0099260D01*
X0140171Y0099278D01*
X0140006Y0099300D01*
X0139842Y0099327D01*
X0139679Y0099357D01*
X0139516Y0099392D01*
X0139354Y0099430D01*
X0139194Y0099472D01*
X0139034Y0099519D01*
X0138875Y0099569D01*
X0138718Y0099623D01*
X0138562Y0099681D01*
X0138408Y0099743D01*
X0138255Y0099808D01*
X0138104Y0099877D01*
X0137955Y0099950D01*
X0137807Y0100027D01*
X0137662Y0100107D01*
X0137518Y0100191D01*
X0137376Y0100278D01*
X0137237Y0100368D01*
X0137100Y0100462D01*
X0136965Y0100560D01*
X0136833Y0100661D01*
X0136703Y0100764D01*
X0136576Y0100871D01*
X0136452Y0100982D01*
X0136330Y0101095D01*
X0136211Y0101211D01*
X0136095Y0101330D01*
X0135982Y0101452D01*
X0135871Y0101576D01*
X0135764Y0101703D01*
X0135661Y0101833D01*
X0135560Y0101965D01*
X0135462Y0102100D01*
X0135368Y0102237D01*
X0135278Y0102376D01*
X0135191Y0102518D01*
X0135107Y0102662D01*
X0135027Y0102807D01*
X0134950Y0102955D01*
X0134877Y0103104D01*
X0134808Y0103255D01*
X0134743Y0103408D01*
X0134681Y0103562D01*
X0134623Y0103718D01*
X0134569Y0103875D01*
X0134519Y0104034D01*
X0134472Y0104194D01*
X0134430Y0104354D01*
X0134392Y0104516D01*
X0134357Y0104679D01*
X0134327Y0104842D01*
X0134300Y0105006D01*
X0134278Y0105171D01*
X0134260Y0105336D01*
X0134245Y0105502D01*
X0134235Y0105668D01*
X0134229Y0105834D01*
X0134227Y0106000D01*
X0134701Y0096157D02*
X0131157Y0096157D01*
X0130843Y0075843D02*
X0111157Y0075843D01*
X0111157Y0059701D01*
X0109976Y0060882D01*
X0108402Y0059307D01*
X0111157Y0056157D01*
X0111157Y0059701D01*
X0114701Y0056157D01*
X0111157Y0056157D01*
X0114701Y0056157D02*
X0130843Y0056157D01*
X0130843Y0075843D01*
X0114227Y0066000D02*
X0114229Y0066166D01*
X0114235Y0066332D01*
X0114245Y0066498D01*
X0114260Y0066664D01*
X0114278Y0066829D01*
X0114300Y0066994D01*
X0114327Y0067158D01*
X0114357Y0067321D01*
X0114392Y0067484D01*
X0114430Y0067646D01*
X0114472Y0067806D01*
X0114519Y0067966D01*
X0114569Y0068125D01*
X0114623Y0068282D01*
X0114681Y0068438D01*
X0114743Y0068592D01*
X0114808Y0068745D01*
X0114877Y0068896D01*
X0114950Y0069045D01*
X0115027Y0069193D01*
X0115107Y0069338D01*
X0115191Y0069482D01*
X0115278Y0069624D01*
X0115368Y0069763D01*
X0115462Y0069900D01*
X0115560Y0070035D01*
X0115661Y0070167D01*
X0115764Y0070297D01*
X0115871Y0070424D01*
X0115982Y0070548D01*
X0116095Y0070670D01*
X0116211Y0070789D01*
X0116330Y0070905D01*
X0116452Y0071018D01*
X0116576Y0071129D01*
X0116703Y0071236D01*
X0116833Y0071339D01*
X0116965Y0071440D01*
X0117100Y0071538D01*
X0117237Y0071632D01*
X0117376Y0071722D01*
X0117518Y0071809D01*
X0117662Y0071893D01*
X0117807Y0071973D01*
X0117955Y0072050D01*
X0118104Y0072123D01*
X0118255Y0072192D01*
X0118408Y0072257D01*
X0118562Y0072319D01*
X0118718Y0072377D01*
X0118875Y0072431D01*
X0119034Y0072481D01*
X0119194Y0072528D01*
X0119354Y0072570D01*
X0119516Y0072608D01*
X0119679Y0072643D01*
X0119842Y0072673D01*
X0120006Y0072700D01*
X0120171Y0072722D01*
X0120336Y0072740D01*
X0120502Y0072755D01*
X0120668Y0072765D01*
X0120834Y0072771D01*
X0121000Y0072773D01*
X0121166Y0072771D01*
X0121332Y0072765D01*
X0121498Y0072755D01*
X0121664Y0072740D01*
X0121829Y0072722D01*
X0121994Y0072700D01*
X0122158Y0072673D01*
X0122321Y0072643D01*
X0122484Y0072608D01*
X0122646Y0072570D01*
X0122806Y0072528D01*
X0122966Y0072481D01*
X0123125Y0072431D01*
X0123282Y0072377D01*
X0123438Y0072319D01*
X0123592Y0072257D01*
X0123745Y0072192D01*
X0123896Y0072123D01*
X0124045Y0072050D01*
X0124193Y0071973D01*
X0124338Y0071893D01*
X0124482Y0071809D01*
X0124624Y0071722D01*
X0124763Y0071632D01*
X0124900Y0071538D01*
X0125035Y0071440D01*
X0125167Y0071339D01*
X0125297Y0071236D01*
X0125424Y0071129D01*
X0125548Y0071018D01*
X0125670Y0070905D01*
X0125789Y0070789D01*
X0125905Y0070670D01*
X0126018Y0070548D01*
X0126129Y0070424D01*
X0126236Y0070297D01*
X0126339Y0070167D01*
X0126440Y0070035D01*
X0126538Y0069900D01*
X0126632Y0069763D01*
X0126722Y0069624D01*
X0126809Y0069482D01*
X0126893Y0069338D01*
X0126973Y0069193D01*
X0127050Y0069045D01*
X0127123Y0068896D01*
X0127192Y0068745D01*
X0127257Y0068592D01*
X0127319Y0068438D01*
X0127377Y0068282D01*
X0127431Y0068125D01*
X0127481Y0067966D01*
X0127528Y0067806D01*
X0127570Y0067646D01*
X0127608Y0067484D01*
X0127643Y0067321D01*
X0127673Y0067158D01*
X0127700Y0066994D01*
X0127722Y0066829D01*
X0127740Y0066664D01*
X0127755Y0066498D01*
X0127765Y0066332D01*
X0127771Y0066166D01*
X0127773Y0066000D01*
X0127771Y0065834D01*
X0127765Y0065668D01*
X0127755Y0065502D01*
X0127740Y0065336D01*
X0127722Y0065171D01*
X0127700Y0065006D01*
X0127673Y0064842D01*
X0127643Y0064679D01*
X0127608Y0064516D01*
X0127570Y0064354D01*
X0127528Y0064194D01*
X0127481Y0064034D01*
X0127431Y0063875D01*
X0127377Y0063718D01*
X0127319Y0063562D01*
X0127257Y0063408D01*
X0127192Y0063255D01*
X0127123Y0063104D01*
X0127050Y0062955D01*
X0126973Y0062807D01*
X0126893Y0062662D01*
X0126809Y0062518D01*
X0126722Y0062376D01*
X0126632Y0062237D01*
X0126538Y0062100D01*
X0126440Y0061965D01*
X0126339Y0061833D01*
X0126236Y0061703D01*
X0126129Y0061576D01*
X0126018Y0061452D01*
X0125905Y0061330D01*
X0125789Y0061211D01*
X0125670Y0061095D01*
X0125548Y0060982D01*
X0125424Y0060871D01*
X0125297Y0060764D01*
X0125167Y0060661D01*
X0125035Y0060560D01*
X0124900Y0060462D01*
X0124763Y0060368D01*
X0124624Y0060278D01*
X0124482Y0060191D01*
X0124338Y0060107D01*
X0124193Y0060027D01*
X0124045Y0059950D01*
X0123896Y0059877D01*
X0123745Y0059808D01*
X0123592Y0059743D01*
X0123438Y0059681D01*
X0123282Y0059623D01*
X0123125Y0059569D01*
X0122966Y0059519D01*
X0122806Y0059472D01*
X0122646Y0059430D01*
X0122484Y0059392D01*
X0122321Y0059357D01*
X0122158Y0059327D01*
X0121994Y0059300D01*
X0121829Y0059278D01*
X0121664Y0059260D01*
X0121498Y0059245D01*
X0121332Y0059235D01*
X0121166Y0059229D01*
X0121000Y0059227D01*
X0120834Y0059229D01*
X0120668Y0059235D01*
X0120502Y0059245D01*
X0120336Y0059260D01*
X0120171Y0059278D01*
X0120006Y0059300D01*
X0119842Y0059327D01*
X0119679Y0059357D01*
X0119516Y0059392D01*
X0119354Y0059430D01*
X0119194Y0059472D01*
X0119034Y0059519D01*
X0118875Y0059569D01*
X0118718Y0059623D01*
X0118562Y0059681D01*
X0118408Y0059743D01*
X0118255Y0059808D01*
X0118104Y0059877D01*
X0117955Y0059950D01*
X0117807Y0060027D01*
X0117662Y0060107D01*
X0117518Y0060191D01*
X0117376Y0060278D01*
X0117237Y0060368D01*
X0117100Y0060462D01*
X0116965Y0060560D01*
X0116833Y0060661D01*
X0116703Y0060764D01*
X0116576Y0060871D01*
X0116452Y0060982D01*
X0116330Y0061095D01*
X0116211Y0061211D01*
X0116095Y0061330D01*
X0115982Y0061452D01*
X0115871Y0061576D01*
X0115764Y0061703D01*
X0115661Y0061833D01*
X0115560Y0061965D01*
X0115462Y0062100D01*
X0115368Y0062237D01*
X0115278Y0062376D01*
X0115191Y0062518D01*
X0115107Y0062662D01*
X0115027Y0062807D01*
X0114950Y0062955D01*
X0114877Y0063104D01*
X0114808Y0063255D01*
X0114743Y0063408D01*
X0114681Y0063562D01*
X0114623Y0063718D01*
X0114569Y0063875D01*
X0114519Y0064034D01*
X0114472Y0064194D01*
X0114430Y0064354D01*
X0114392Y0064516D01*
X0114357Y0064679D01*
X0114327Y0064842D01*
X0114300Y0065006D01*
X0114278Y0065171D01*
X0114260Y0065336D01*
X0114245Y0065502D01*
X0114235Y0065668D01*
X0114229Y0065834D01*
X0114227Y0066000D01*
X0090567Y0073205D02*
X0090567Y0053520D01*
X0074425Y0053520D01*
X0070882Y0057063D01*
X0069701Y0058244D01*
X0068126Y0056669D01*
X0070882Y0053520D01*
X0070882Y0057063D01*
X0070882Y0073205D01*
X0090567Y0073205D01*
X0073951Y0063362D02*
X0073953Y0063528D01*
X0073959Y0063694D01*
X0073969Y0063860D01*
X0073984Y0064026D01*
X0074002Y0064191D01*
X0074024Y0064356D01*
X0074051Y0064520D01*
X0074081Y0064683D01*
X0074116Y0064846D01*
X0074154Y0065008D01*
X0074196Y0065168D01*
X0074243Y0065328D01*
X0074293Y0065487D01*
X0074347Y0065644D01*
X0074405Y0065800D01*
X0074467Y0065954D01*
X0074532Y0066107D01*
X0074601Y0066258D01*
X0074674Y0066407D01*
X0074751Y0066555D01*
X0074831Y0066700D01*
X0074915Y0066844D01*
X0075002Y0066986D01*
X0075092Y0067125D01*
X0075186Y0067262D01*
X0075284Y0067397D01*
X0075385Y0067529D01*
X0075488Y0067659D01*
X0075595Y0067786D01*
X0075706Y0067910D01*
X0075819Y0068032D01*
X0075935Y0068151D01*
X0076054Y0068267D01*
X0076176Y0068380D01*
X0076300Y0068491D01*
X0076427Y0068598D01*
X0076557Y0068701D01*
X0076689Y0068802D01*
X0076824Y0068900D01*
X0076961Y0068994D01*
X0077100Y0069084D01*
X0077242Y0069171D01*
X0077386Y0069255D01*
X0077531Y0069335D01*
X0077679Y0069412D01*
X0077828Y0069485D01*
X0077979Y0069554D01*
X0078132Y0069619D01*
X0078286Y0069681D01*
X0078442Y0069739D01*
X0078599Y0069793D01*
X0078758Y0069843D01*
X0078918Y0069890D01*
X0079078Y0069932D01*
X0079240Y0069970D01*
X0079403Y0070005D01*
X0079566Y0070035D01*
X0079730Y0070062D01*
X0079895Y0070084D01*
X0080060Y0070102D01*
X0080226Y0070117D01*
X0080392Y0070127D01*
X0080558Y0070133D01*
X0080724Y0070135D01*
X0080890Y0070133D01*
X0081056Y0070127D01*
X0081222Y0070117D01*
X0081388Y0070102D01*
X0081553Y0070084D01*
X0081718Y0070062D01*
X0081882Y0070035D01*
X0082045Y0070005D01*
X0082208Y0069970D01*
X0082370Y0069932D01*
X0082530Y0069890D01*
X0082690Y0069843D01*
X0082849Y0069793D01*
X0083006Y0069739D01*
X0083162Y0069681D01*
X0083316Y0069619D01*
X0083469Y0069554D01*
X0083620Y0069485D01*
X0083769Y0069412D01*
X0083917Y0069335D01*
X0084062Y0069255D01*
X0084206Y0069171D01*
X0084348Y0069084D01*
X0084487Y0068994D01*
X0084624Y0068900D01*
X0084759Y0068802D01*
X0084891Y0068701D01*
X0085021Y0068598D01*
X0085148Y0068491D01*
X0085272Y0068380D01*
X0085394Y0068267D01*
X0085513Y0068151D01*
X0085629Y0068032D01*
X0085742Y0067910D01*
X0085853Y0067786D01*
X0085960Y0067659D01*
X0086063Y0067529D01*
X0086164Y0067397D01*
X0086262Y0067262D01*
X0086356Y0067125D01*
X0086446Y0066986D01*
X0086533Y0066844D01*
X0086617Y0066700D01*
X0086697Y0066555D01*
X0086774Y0066407D01*
X0086847Y0066258D01*
X0086916Y0066107D01*
X0086981Y0065954D01*
X0087043Y0065800D01*
X0087101Y0065644D01*
X0087155Y0065487D01*
X0087205Y0065328D01*
X0087252Y0065168D01*
X0087294Y0065008D01*
X0087332Y0064846D01*
X0087367Y0064683D01*
X0087397Y0064520D01*
X0087424Y0064356D01*
X0087446Y0064191D01*
X0087464Y0064026D01*
X0087479Y0063860D01*
X0087489Y0063694D01*
X0087495Y0063528D01*
X0087497Y0063362D01*
X0087495Y0063196D01*
X0087489Y0063030D01*
X0087479Y0062864D01*
X0087464Y0062698D01*
X0087446Y0062533D01*
X0087424Y0062368D01*
X0087397Y0062204D01*
X0087367Y0062041D01*
X0087332Y0061878D01*
X0087294Y0061716D01*
X0087252Y0061556D01*
X0087205Y0061396D01*
X0087155Y0061237D01*
X0087101Y0061080D01*
X0087043Y0060924D01*
X0086981Y0060770D01*
X0086916Y0060617D01*
X0086847Y0060466D01*
X0086774Y0060317D01*
X0086697Y0060169D01*
X0086617Y0060024D01*
X0086533Y0059880D01*
X0086446Y0059738D01*
X0086356Y0059599D01*
X0086262Y0059462D01*
X0086164Y0059327D01*
X0086063Y0059195D01*
X0085960Y0059065D01*
X0085853Y0058938D01*
X0085742Y0058814D01*
X0085629Y0058692D01*
X0085513Y0058573D01*
X0085394Y0058457D01*
X0085272Y0058344D01*
X0085148Y0058233D01*
X0085021Y0058126D01*
X0084891Y0058023D01*
X0084759Y0057922D01*
X0084624Y0057824D01*
X0084487Y0057730D01*
X0084348Y0057640D01*
X0084206Y0057553D01*
X0084062Y0057469D01*
X0083917Y0057389D01*
X0083769Y0057312D01*
X0083620Y0057239D01*
X0083469Y0057170D01*
X0083316Y0057105D01*
X0083162Y0057043D01*
X0083006Y0056985D01*
X0082849Y0056931D01*
X0082690Y0056881D01*
X0082530Y0056834D01*
X0082370Y0056792D01*
X0082208Y0056754D01*
X0082045Y0056719D01*
X0081882Y0056689D01*
X0081718Y0056662D01*
X0081553Y0056640D01*
X0081388Y0056622D01*
X0081222Y0056607D01*
X0081056Y0056597D01*
X0080890Y0056591D01*
X0080724Y0056589D01*
X0080558Y0056591D01*
X0080392Y0056597D01*
X0080226Y0056607D01*
X0080060Y0056622D01*
X0079895Y0056640D01*
X0079730Y0056662D01*
X0079566Y0056689D01*
X0079403Y0056719D01*
X0079240Y0056754D01*
X0079078Y0056792D01*
X0078918Y0056834D01*
X0078758Y0056881D01*
X0078599Y0056931D01*
X0078442Y0056985D01*
X0078286Y0057043D01*
X0078132Y0057105D01*
X0077979Y0057170D01*
X0077828Y0057239D01*
X0077679Y0057312D01*
X0077531Y0057389D01*
X0077386Y0057469D01*
X0077242Y0057553D01*
X0077100Y0057640D01*
X0076961Y0057730D01*
X0076824Y0057824D01*
X0076689Y0057922D01*
X0076557Y0058023D01*
X0076427Y0058126D01*
X0076300Y0058233D01*
X0076176Y0058344D01*
X0076054Y0058457D01*
X0075935Y0058573D01*
X0075819Y0058692D01*
X0075706Y0058814D01*
X0075595Y0058938D01*
X0075488Y0059065D01*
X0075385Y0059195D01*
X0075284Y0059327D01*
X0075186Y0059462D01*
X0075092Y0059599D01*
X0075002Y0059738D01*
X0074915Y0059880D01*
X0074831Y0060024D01*
X0074751Y0060169D01*
X0074674Y0060317D01*
X0074601Y0060466D01*
X0074532Y0060617D01*
X0074467Y0060770D01*
X0074405Y0060924D01*
X0074347Y0061080D01*
X0074293Y0061237D01*
X0074243Y0061396D01*
X0074196Y0061556D01*
X0074154Y0061716D01*
X0074116Y0061878D01*
X0074081Y0062041D01*
X0074051Y0062204D01*
X0074024Y0062368D01*
X0074002Y0062533D01*
X0073984Y0062698D01*
X0073969Y0062864D01*
X0073959Y0063030D01*
X0073953Y0063196D01*
X0073951Y0063362D01*
X0074425Y0053520D02*
X0070882Y0053520D01*
X0113950Y0030950D02*
X0113950Y0027450D01*
X0113948Y0027390D01*
X0113943Y0027329D01*
X0113934Y0027270D01*
X0113921Y0027211D01*
X0113905Y0027152D01*
X0113885Y0027095D01*
X0113862Y0027040D01*
X0113835Y0026985D01*
X0113806Y0026933D01*
X0113773Y0026882D01*
X0113737Y0026833D01*
X0113699Y0026787D01*
X0113657Y0026743D01*
X0113613Y0026701D01*
X0113567Y0026663D01*
X0113518Y0026627D01*
X0113467Y0026594D01*
X0113415Y0026565D01*
X0113360Y0026538D01*
X0113305Y0026515D01*
X0113248Y0026495D01*
X0113189Y0026479D01*
X0113130Y0026466D01*
X0113071Y0026457D01*
X0113010Y0026452D01*
X0112950Y0026450D01*
X0112450Y0026450D01*
X0116304Y0026450D02*
X0116304Y0030950D01*
X0117554Y0030950D01*
X0117623Y0030948D01*
X0117692Y0030942D01*
X0117760Y0030933D01*
X0117827Y0030920D01*
X0117894Y0030903D01*
X0117960Y0030882D01*
X0118024Y0030858D01*
X0118087Y0030830D01*
X0118149Y0030799D01*
X0118209Y0030765D01*
X0118266Y0030727D01*
X0118322Y0030686D01*
X0118375Y0030643D01*
X0118426Y0030596D01*
X0118474Y0030547D01*
X0118519Y0030495D01*
X0118561Y0030440D01*
X0118600Y0030384D01*
X0118637Y0030325D01*
X0118669Y0030264D01*
X0118699Y0030202D01*
X0118725Y0030138D01*
X0118747Y0030073D01*
X0118766Y0030007D01*
X0118781Y0029940D01*
X0118792Y0029872D01*
X0118800Y0029803D01*
X0118804Y0029734D01*
X0118804Y0029666D01*
X0118800Y0029597D01*
X0118792Y0029528D01*
X0118781Y0029460D01*
X0118766Y0029393D01*
X0118747Y0029327D01*
X0118725Y0029262D01*
X0118699Y0029198D01*
X0118669Y0029136D01*
X0118637Y0029075D01*
X0118600Y0029016D01*
X0118561Y0028960D01*
X0118519Y0028905D01*
X0118474Y0028853D01*
X0118426Y0028804D01*
X0118375Y0028757D01*
X0118322Y0028714D01*
X0118266Y0028673D01*
X0118209Y0028635D01*
X0118149Y0028601D01*
X0118087Y0028570D01*
X0118024Y0028542D01*
X0117960Y0028518D01*
X0117894Y0028497D01*
X0117827Y0028480D01*
X0117760Y0028467D01*
X0117692Y0028458D01*
X0117623Y0028452D01*
X0117554Y0028450D01*
X0116304Y0028450D01*
X0120579Y0029950D02*
X0121829Y0030950D01*
X0121829Y0026450D01*
X0120579Y0026450D02*
X0123079Y0026450D01*
X0171157Y0056157D02*
X0190843Y0056157D01*
X0190843Y0072299D01*
X0192024Y0071118D01*
X0193598Y0072693D01*
X0190843Y0075843D01*
X0190843Y0072299D01*
X0187299Y0075843D01*
X0190843Y0075843D01*
X0187299Y0075843D02*
X0171157Y0075843D01*
X0171157Y0056157D01*
X0174227Y0066000D02*
X0174229Y0066166D01*
X0174235Y0066332D01*
X0174245Y0066498D01*
X0174260Y0066664D01*
X0174278Y0066829D01*
X0174300Y0066994D01*
X0174327Y0067158D01*
X0174357Y0067321D01*
X0174392Y0067484D01*
X0174430Y0067646D01*
X0174472Y0067806D01*
X0174519Y0067966D01*
X0174569Y0068125D01*
X0174623Y0068282D01*
X0174681Y0068438D01*
X0174743Y0068592D01*
X0174808Y0068745D01*
X0174877Y0068896D01*
X0174950Y0069045D01*
X0175027Y0069193D01*
X0175107Y0069338D01*
X0175191Y0069482D01*
X0175278Y0069624D01*
X0175368Y0069763D01*
X0175462Y0069900D01*
X0175560Y0070035D01*
X0175661Y0070167D01*
X0175764Y0070297D01*
X0175871Y0070424D01*
X0175982Y0070548D01*
X0176095Y0070670D01*
X0176211Y0070789D01*
X0176330Y0070905D01*
X0176452Y0071018D01*
X0176576Y0071129D01*
X0176703Y0071236D01*
X0176833Y0071339D01*
X0176965Y0071440D01*
X0177100Y0071538D01*
X0177237Y0071632D01*
X0177376Y0071722D01*
X0177518Y0071809D01*
X0177662Y0071893D01*
X0177807Y0071973D01*
X0177955Y0072050D01*
X0178104Y0072123D01*
X0178255Y0072192D01*
X0178408Y0072257D01*
X0178562Y0072319D01*
X0178718Y0072377D01*
X0178875Y0072431D01*
X0179034Y0072481D01*
X0179194Y0072528D01*
X0179354Y0072570D01*
X0179516Y0072608D01*
X0179679Y0072643D01*
X0179842Y0072673D01*
X0180006Y0072700D01*
X0180171Y0072722D01*
X0180336Y0072740D01*
X0180502Y0072755D01*
X0180668Y0072765D01*
X0180834Y0072771D01*
X0181000Y0072773D01*
X0181166Y0072771D01*
X0181332Y0072765D01*
X0181498Y0072755D01*
X0181664Y0072740D01*
X0181829Y0072722D01*
X0181994Y0072700D01*
X0182158Y0072673D01*
X0182321Y0072643D01*
X0182484Y0072608D01*
X0182646Y0072570D01*
X0182806Y0072528D01*
X0182966Y0072481D01*
X0183125Y0072431D01*
X0183282Y0072377D01*
X0183438Y0072319D01*
X0183592Y0072257D01*
X0183745Y0072192D01*
X0183896Y0072123D01*
X0184045Y0072050D01*
X0184193Y0071973D01*
X0184338Y0071893D01*
X0184482Y0071809D01*
X0184624Y0071722D01*
X0184763Y0071632D01*
X0184900Y0071538D01*
X0185035Y0071440D01*
X0185167Y0071339D01*
X0185297Y0071236D01*
X0185424Y0071129D01*
X0185548Y0071018D01*
X0185670Y0070905D01*
X0185789Y0070789D01*
X0185905Y0070670D01*
X0186018Y0070548D01*
X0186129Y0070424D01*
X0186236Y0070297D01*
X0186339Y0070167D01*
X0186440Y0070035D01*
X0186538Y0069900D01*
X0186632Y0069763D01*
X0186722Y0069624D01*
X0186809Y0069482D01*
X0186893Y0069338D01*
X0186973Y0069193D01*
X0187050Y0069045D01*
X0187123Y0068896D01*
X0187192Y0068745D01*
X0187257Y0068592D01*
X0187319Y0068438D01*
X0187377Y0068282D01*
X0187431Y0068125D01*
X0187481Y0067966D01*
X0187528Y0067806D01*
X0187570Y0067646D01*
X0187608Y0067484D01*
X0187643Y0067321D01*
X0187673Y0067158D01*
X0187700Y0066994D01*
X0187722Y0066829D01*
X0187740Y0066664D01*
X0187755Y0066498D01*
X0187765Y0066332D01*
X0187771Y0066166D01*
X0187773Y0066000D01*
X0187771Y0065834D01*
X0187765Y0065668D01*
X0187755Y0065502D01*
X0187740Y0065336D01*
X0187722Y0065171D01*
X0187700Y0065006D01*
X0187673Y0064842D01*
X0187643Y0064679D01*
X0187608Y0064516D01*
X0187570Y0064354D01*
X0187528Y0064194D01*
X0187481Y0064034D01*
X0187431Y0063875D01*
X0187377Y0063718D01*
X0187319Y0063562D01*
X0187257Y0063408D01*
X0187192Y0063255D01*
X0187123Y0063104D01*
X0187050Y0062955D01*
X0186973Y0062807D01*
X0186893Y0062662D01*
X0186809Y0062518D01*
X0186722Y0062376D01*
X0186632Y0062237D01*
X0186538Y0062100D01*
X0186440Y0061965D01*
X0186339Y0061833D01*
X0186236Y0061703D01*
X0186129Y0061576D01*
X0186018Y0061452D01*
X0185905Y0061330D01*
X0185789Y0061211D01*
X0185670Y0061095D01*
X0185548Y0060982D01*
X0185424Y0060871D01*
X0185297Y0060764D01*
X0185167Y0060661D01*
X0185035Y0060560D01*
X0184900Y0060462D01*
X0184763Y0060368D01*
X0184624Y0060278D01*
X0184482Y0060191D01*
X0184338Y0060107D01*
X0184193Y0060027D01*
X0184045Y0059950D01*
X0183896Y0059877D01*
X0183745Y0059808D01*
X0183592Y0059743D01*
X0183438Y0059681D01*
X0183282Y0059623D01*
X0183125Y0059569D01*
X0182966Y0059519D01*
X0182806Y0059472D01*
X0182646Y0059430D01*
X0182484Y0059392D01*
X0182321Y0059357D01*
X0182158Y0059327D01*
X0181994Y0059300D01*
X0181829Y0059278D01*
X0181664Y0059260D01*
X0181498Y0059245D01*
X0181332Y0059235D01*
X0181166Y0059229D01*
X0181000Y0059227D01*
X0180834Y0059229D01*
X0180668Y0059235D01*
X0180502Y0059245D01*
X0180336Y0059260D01*
X0180171Y0059278D01*
X0180006Y0059300D01*
X0179842Y0059327D01*
X0179679Y0059357D01*
X0179516Y0059392D01*
X0179354Y0059430D01*
X0179194Y0059472D01*
X0179034Y0059519D01*
X0178875Y0059569D01*
X0178718Y0059623D01*
X0178562Y0059681D01*
X0178408Y0059743D01*
X0178255Y0059808D01*
X0178104Y0059877D01*
X0177955Y0059950D01*
X0177807Y0060027D01*
X0177662Y0060107D01*
X0177518Y0060191D01*
X0177376Y0060278D01*
X0177237Y0060368D01*
X0177100Y0060462D01*
X0176965Y0060560D01*
X0176833Y0060661D01*
X0176703Y0060764D01*
X0176576Y0060871D01*
X0176452Y0060982D01*
X0176330Y0061095D01*
X0176211Y0061211D01*
X0176095Y0061330D01*
X0175982Y0061452D01*
X0175871Y0061576D01*
X0175764Y0061703D01*
X0175661Y0061833D01*
X0175560Y0061965D01*
X0175462Y0062100D01*
X0175368Y0062237D01*
X0175278Y0062376D01*
X0175191Y0062518D01*
X0175107Y0062662D01*
X0175027Y0062807D01*
X0174950Y0062955D01*
X0174877Y0063104D01*
X0174808Y0063255D01*
X0174743Y0063408D01*
X0174681Y0063562D01*
X0174623Y0063718D01*
X0174569Y0063875D01*
X0174519Y0064034D01*
X0174472Y0064194D01*
X0174430Y0064354D01*
X0174392Y0064516D01*
X0174357Y0064679D01*
X0174327Y0064842D01*
X0174300Y0065006D01*
X0174278Y0065171D01*
X0174260Y0065336D01*
X0174245Y0065502D01*
X0174235Y0065668D01*
X0174229Y0065834D01*
X0174227Y0066000D01*
D13*
X0177527Y0052100D02*
X0177527Y0049200D01*
X0178816Y0049200D01*
X0180023Y0049200D02*
X0180023Y0052100D01*
X0181312Y0052100D01*
X0182513Y0052100D02*
X0183318Y0052100D01*
X0182513Y0052100D02*
X0182513Y0049200D01*
X0183318Y0049200D01*
X0183373Y0049202D01*
X0183428Y0049208D01*
X0183482Y0049217D01*
X0183535Y0049230D01*
X0183588Y0049247D01*
X0183639Y0049267D01*
X0183689Y0049290D01*
X0183737Y0049317D01*
X0183783Y0049348D01*
X0183827Y0049381D01*
X0183868Y0049417D01*
X0183907Y0049456D01*
X0183943Y0049497D01*
X0183976Y0049541D01*
X0184007Y0049587D01*
X0184034Y0049635D01*
X0184057Y0049685D01*
X0184077Y0049736D01*
X0184094Y0049789D01*
X0184107Y0049842D01*
X0184116Y0049896D01*
X0184122Y0049951D01*
X0184124Y0050006D01*
X0184124Y0051294D01*
X0184122Y0051349D01*
X0184116Y0051404D01*
X0184107Y0051458D01*
X0184094Y0051511D01*
X0184077Y0051564D01*
X0184057Y0051615D01*
X0184034Y0051665D01*
X0184007Y0051713D01*
X0183976Y0051759D01*
X0183943Y0051803D01*
X0183907Y0051844D01*
X0183868Y0051883D01*
X0183827Y0051919D01*
X0183783Y0051952D01*
X0183737Y0051983D01*
X0183689Y0052010D01*
X0183639Y0052033D01*
X0183588Y0052053D01*
X0183535Y0052070D01*
X0183482Y0052083D01*
X0183428Y0052092D01*
X0183373Y0052098D01*
X0183318Y0052100D01*
X0185489Y0052100D02*
X0187100Y0052100D01*
X0186456Y0050811D02*
X0185489Y0050811D01*
X0185489Y0052100D01*
X0186456Y0050811D02*
X0186504Y0050809D01*
X0186552Y0050804D01*
X0186599Y0050795D01*
X0186646Y0050782D01*
X0186691Y0050766D01*
X0186735Y0050747D01*
X0186778Y0050725D01*
X0186819Y0050699D01*
X0186858Y0050670D01*
X0186894Y0050639D01*
X0186928Y0050605D01*
X0186959Y0050569D01*
X0186988Y0050530D01*
X0187014Y0050489D01*
X0187036Y0050446D01*
X0187055Y0050402D01*
X0187071Y0050357D01*
X0187084Y0050310D01*
X0187093Y0050263D01*
X0187098Y0050215D01*
X0187100Y0050167D01*
X0187100Y0049844D01*
X0187098Y0049796D01*
X0187093Y0049748D01*
X0187084Y0049701D01*
X0187071Y0049654D01*
X0187055Y0049609D01*
X0187036Y0049565D01*
X0187014Y0049522D01*
X0186988Y0049481D01*
X0186959Y0049442D01*
X0186928Y0049406D01*
X0186894Y0049372D01*
X0186858Y0049341D01*
X0186819Y0049312D01*
X0186778Y0049286D01*
X0186735Y0049264D01*
X0186691Y0049245D01*
X0186646Y0049229D01*
X0186599Y0049216D01*
X0186552Y0049207D01*
X0186504Y0049202D01*
X0186456Y0049200D01*
X0185489Y0049200D01*
X0181312Y0049200D02*
X0180023Y0049200D01*
X0180023Y0050811D02*
X0180990Y0050811D01*
X0124473Y0080706D02*
X0124473Y0080867D01*
X0124472Y0080867D02*
X0124470Y0080915D01*
X0124465Y0080963D01*
X0124456Y0081010D01*
X0124443Y0081057D01*
X0124427Y0081102D01*
X0124408Y0081146D01*
X0124386Y0081189D01*
X0124360Y0081230D01*
X0124331Y0081269D01*
X0124300Y0081305D01*
X0124266Y0081339D01*
X0124230Y0081370D01*
X0124191Y0081399D01*
X0124150Y0081425D01*
X0124107Y0081447D01*
X0124063Y0081466D01*
X0124018Y0081482D01*
X0123971Y0081495D01*
X0123924Y0081504D01*
X0123876Y0081509D01*
X0123828Y0081511D01*
X0122862Y0081511D01*
X0122862Y0080706D01*
X0122861Y0080706D02*
X0122863Y0080651D01*
X0122869Y0080596D01*
X0122878Y0080542D01*
X0122891Y0080489D01*
X0122908Y0080436D01*
X0122928Y0080385D01*
X0122951Y0080335D01*
X0122978Y0080287D01*
X0123009Y0080241D01*
X0123042Y0080197D01*
X0123078Y0080156D01*
X0123117Y0080117D01*
X0123158Y0080081D01*
X0123202Y0080048D01*
X0123248Y0080017D01*
X0123296Y0079990D01*
X0123346Y0079967D01*
X0123397Y0079947D01*
X0123450Y0079930D01*
X0123503Y0079917D01*
X0123557Y0079908D01*
X0123612Y0079902D01*
X0123667Y0079900D01*
X0123722Y0079902D01*
X0123777Y0079908D01*
X0123831Y0079917D01*
X0123884Y0079930D01*
X0123937Y0079947D01*
X0123988Y0079967D01*
X0124038Y0079990D01*
X0124086Y0080017D01*
X0124132Y0080048D01*
X0124176Y0080081D01*
X0124217Y0080117D01*
X0124256Y0080156D01*
X0124292Y0080197D01*
X0124325Y0080241D01*
X0124356Y0080287D01*
X0124383Y0080335D01*
X0124406Y0080385D01*
X0124426Y0080436D01*
X0124443Y0080489D01*
X0124456Y0080542D01*
X0124465Y0080596D01*
X0124471Y0080651D01*
X0124473Y0080706D01*
X0122862Y0081511D02*
X0122864Y0081581D01*
X0122870Y0081650D01*
X0122879Y0081720D01*
X0122892Y0081788D01*
X0122909Y0081856D01*
X0122929Y0081923D01*
X0122954Y0081988D01*
X0122981Y0082052D01*
X0123012Y0082115D01*
X0123047Y0082176D01*
X0123084Y0082234D01*
X0123125Y0082291D01*
X0123169Y0082345D01*
X0123215Y0082397D01*
X0123265Y0082447D01*
X0123317Y0082493D01*
X0123371Y0082537D01*
X0123428Y0082578D01*
X0123486Y0082615D01*
X0123547Y0082650D01*
X0123610Y0082681D01*
X0123674Y0082708D01*
X0123739Y0082733D01*
X0123806Y0082753D01*
X0123874Y0082770D01*
X0123942Y0082783D01*
X0124012Y0082792D01*
X0124081Y0082798D01*
X0124151Y0082800D01*
X0121497Y0081994D02*
X0121497Y0080706D01*
X0121495Y0080651D01*
X0121489Y0080596D01*
X0121480Y0080542D01*
X0121467Y0080489D01*
X0121450Y0080436D01*
X0121430Y0080385D01*
X0121407Y0080335D01*
X0121380Y0080287D01*
X0121349Y0080241D01*
X0121316Y0080197D01*
X0121280Y0080156D01*
X0121241Y0080117D01*
X0121200Y0080081D01*
X0121156Y0080048D01*
X0121110Y0080017D01*
X0121062Y0079990D01*
X0121012Y0079967D01*
X0120961Y0079947D01*
X0120908Y0079930D01*
X0120855Y0079917D01*
X0120801Y0079908D01*
X0120746Y0079902D01*
X0120691Y0079900D01*
X0119886Y0079900D01*
X0119886Y0082800D01*
X0120691Y0082800D01*
X0120746Y0082798D01*
X0120801Y0082792D01*
X0120855Y0082783D01*
X0120908Y0082770D01*
X0120961Y0082753D01*
X0121012Y0082733D01*
X0121062Y0082710D01*
X0121110Y0082683D01*
X0121156Y0082652D01*
X0121200Y0082619D01*
X0121241Y0082583D01*
X0121280Y0082544D01*
X0121316Y0082503D01*
X0121349Y0082459D01*
X0121380Y0082413D01*
X0121407Y0082365D01*
X0121430Y0082315D01*
X0121450Y0082264D01*
X0121467Y0082211D01*
X0121480Y0082158D01*
X0121489Y0082104D01*
X0121495Y0082049D01*
X0121497Y0081994D01*
X0118685Y0082800D02*
X0117396Y0082800D01*
X0117396Y0079900D01*
X0118685Y0079900D01*
X0118363Y0081511D02*
X0117396Y0081511D01*
X0116189Y0079900D02*
X0114900Y0079900D01*
X0114900Y0082800D01*
X0084197Y0077262D02*
X0082586Y0077262D01*
X0083392Y0077262D02*
X0083392Y0080162D01*
X0082586Y0079518D01*
X0081221Y0079357D02*
X0081221Y0078068D01*
X0081222Y0078068D02*
X0081220Y0078013D01*
X0081214Y0077958D01*
X0081205Y0077904D01*
X0081192Y0077851D01*
X0081175Y0077798D01*
X0081155Y0077747D01*
X0081132Y0077697D01*
X0081105Y0077649D01*
X0081074Y0077603D01*
X0081041Y0077559D01*
X0081005Y0077518D01*
X0080966Y0077479D01*
X0080925Y0077443D01*
X0080881Y0077410D01*
X0080835Y0077379D01*
X0080787Y0077352D01*
X0080737Y0077329D01*
X0080686Y0077309D01*
X0080633Y0077292D01*
X0080580Y0077279D01*
X0080526Y0077270D01*
X0080471Y0077264D01*
X0080416Y0077262D01*
X0079610Y0077262D01*
X0079610Y0080162D01*
X0080416Y0080162D01*
X0080416Y0080163D02*
X0080471Y0080161D01*
X0080526Y0080155D01*
X0080580Y0080146D01*
X0080633Y0080133D01*
X0080686Y0080116D01*
X0080737Y0080096D01*
X0080787Y0080073D01*
X0080835Y0080046D01*
X0080881Y0080015D01*
X0080925Y0079982D01*
X0080966Y0079946D01*
X0081005Y0079907D01*
X0081041Y0079866D01*
X0081074Y0079822D01*
X0081105Y0079776D01*
X0081132Y0079728D01*
X0081155Y0079678D01*
X0081175Y0079627D01*
X0081192Y0079574D01*
X0081205Y0079521D01*
X0081214Y0079467D01*
X0081220Y0079412D01*
X0081222Y0079357D01*
X0078409Y0080162D02*
X0077120Y0080162D01*
X0077120Y0077262D01*
X0078409Y0077262D01*
X0078087Y0078873D02*
X0077120Y0078873D01*
X0075913Y0077262D02*
X0074624Y0077262D01*
X0074624Y0080162D01*
X0134900Y0119900D02*
X0136189Y0119900D01*
X0137396Y0119900D02*
X0137396Y0122800D01*
X0138685Y0122800D01*
X0139886Y0122800D02*
X0139886Y0119900D01*
X0140691Y0119900D01*
X0140746Y0119902D01*
X0140801Y0119908D01*
X0140855Y0119917D01*
X0140908Y0119930D01*
X0140961Y0119947D01*
X0141012Y0119967D01*
X0141062Y0119990D01*
X0141110Y0120017D01*
X0141156Y0120048D01*
X0141200Y0120081D01*
X0141241Y0120117D01*
X0141280Y0120156D01*
X0141316Y0120197D01*
X0141349Y0120241D01*
X0141380Y0120287D01*
X0141407Y0120335D01*
X0141430Y0120385D01*
X0141450Y0120436D01*
X0141467Y0120489D01*
X0141480Y0120542D01*
X0141489Y0120596D01*
X0141495Y0120651D01*
X0141497Y0120706D01*
X0141497Y0121994D01*
X0141495Y0122049D01*
X0141489Y0122104D01*
X0141480Y0122158D01*
X0141467Y0122211D01*
X0141450Y0122264D01*
X0141430Y0122315D01*
X0141407Y0122365D01*
X0141380Y0122413D01*
X0141349Y0122459D01*
X0141316Y0122503D01*
X0141280Y0122544D01*
X0141241Y0122583D01*
X0141200Y0122619D01*
X0141156Y0122652D01*
X0141110Y0122683D01*
X0141062Y0122710D01*
X0141012Y0122733D01*
X0140961Y0122753D01*
X0140908Y0122770D01*
X0140855Y0122783D01*
X0140801Y0122792D01*
X0140746Y0122798D01*
X0140691Y0122800D01*
X0139886Y0122800D01*
X0138363Y0121511D02*
X0137396Y0121511D01*
X0137396Y0119900D02*
X0138685Y0119900D01*
X0134900Y0119900D02*
X0134900Y0122800D01*
X0142862Y0122800D02*
X0142862Y0122478D01*
X0142862Y0122800D02*
X0144473Y0122800D01*
X0143667Y0119900D01*
X0147527Y0119200D02*
X0148816Y0119200D01*
X0150023Y0119200D02*
X0150023Y0122100D01*
X0151312Y0122100D01*
X0152513Y0122100D02*
X0153318Y0122100D01*
X0152513Y0122100D02*
X0152513Y0119200D01*
X0153318Y0119200D01*
X0153373Y0119202D01*
X0153428Y0119208D01*
X0153482Y0119217D01*
X0153535Y0119230D01*
X0153588Y0119247D01*
X0153639Y0119267D01*
X0153689Y0119290D01*
X0153737Y0119317D01*
X0153783Y0119348D01*
X0153827Y0119381D01*
X0153868Y0119417D01*
X0153907Y0119456D01*
X0153943Y0119497D01*
X0153976Y0119541D01*
X0154007Y0119587D01*
X0154034Y0119635D01*
X0154057Y0119685D01*
X0154077Y0119736D01*
X0154094Y0119789D01*
X0154107Y0119842D01*
X0154116Y0119896D01*
X0154122Y0119951D01*
X0154124Y0120006D01*
X0154124Y0121294D01*
X0154122Y0121349D01*
X0154116Y0121404D01*
X0154107Y0121458D01*
X0154094Y0121511D01*
X0154077Y0121564D01*
X0154057Y0121615D01*
X0154034Y0121665D01*
X0154007Y0121713D01*
X0153976Y0121759D01*
X0153943Y0121803D01*
X0153907Y0121844D01*
X0153868Y0121883D01*
X0153827Y0121919D01*
X0153783Y0121952D01*
X0153737Y0121983D01*
X0153689Y0122010D01*
X0153639Y0122033D01*
X0153588Y0122053D01*
X0153535Y0122070D01*
X0153482Y0122083D01*
X0153428Y0122092D01*
X0153373Y0122098D01*
X0153318Y0122100D01*
X0150990Y0120811D02*
X0150023Y0120811D01*
X0150023Y0119200D02*
X0151312Y0119200D01*
X0147527Y0119200D02*
X0147527Y0122100D01*
X0155489Y0119844D02*
X0157100Y0119844D01*
X0156617Y0120489D02*
X0156617Y0119200D01*
X0155489Y0119844D02*
X0156133Y0122100D01*
X0109473Y0149900D02*
X0107862Y0149900D01*
X0109231Y0151511D01*
X0108748Y0152800D02*
X0108689Y0152798D01*
X0108631Y0152793D01*
X0108573Y0152783D01*
X0108516Y0152771D01*
X0108460Y0152754D01*
X0108405Y0152735D01*
X0108351Y0152711D01*
X0108299Y0152685D01*
X0108249Y0152655D01*
X0108200Y0152622D01*
X0108154Y0152586D01*
X0108110Y0152547D01*
X0108069Y0152506D01*
X0108030Y0152462D01*
X0107994Y0152416D01*
X0107962Y0152367D01*
X0107932Y0152317D01*
X0107905Y0152265D01*
X0107882Y0152211D01*
X0107862Y0152156D01*
X0109231Y0151511D02*
X0109268Y0151548D01*
X0109302Y0151588D01*
X0109334Y0151630D01*
X0109362Y0151675D01*
X0109388Y0151721D01*
X0109410Y0151768D01*
X0109429Y0151817D01*
X0109445Y0151867D01*
X0109457Y0151918D01*
X0109466Y0151970D01*
X0109471Y0152022D01*
X0109473Y0152075D01*
X0109471Y0152127D01*
X0109466Y0152178D01*
X0109456Y0152229D01*
X0109444Y0152279D01*
X0109427Y0152328D01*
X0109407Y0152376D01*
X0109384Y0152422D01*
X0109358Y0152467D01*
X0109328Y0152509D01*
X0109296Y0152550D01*
X0109261Y0152588D01*
X0109223Y0152623D01*
X0109182Y0152655D01*
X0109140Y0152685D01*
X0109095Y0152711D01*
X0109049Y0152734D01*
X0109001Y0152754D01*
X0108952Y0152771D01*
X0108902Y0152783D01*
X0108851Y0152793D01*
X0108800Y0152798D01*
X0108748Y0152800D01*
X0106497Y0151994D02*
X0106497Y0150706D01*
X0106495Y0150651D01*
X0106489Y0150596D01*
X0106480Y0150542D01*
X0106467Y0150489D01*
X0106450Y0150436D01*
X0106430Y0150385D01*
X0106407Y0150335D01*
X0106380Y0150287D01*
X0106349Y0150241D01*
X0106316Y0150197D01*
X0106280Y0150156D01*
X0106241Y0150117D01*
X0106200Y0150081D01*
X0106156Y0150048D01*
X0106110Y0150017D01*
X0106062Y0149990D01*
X0106012Y0149967D01*
X0105961Y0149947D01*
X0105908Y0149930D01*
X0105855Y0149917D01*
X0105801Y0149908D01*
X0105746Y0149902D01*
X0105691Y0149900D01*
X0104886Y0149900D01*
X0104886Y0152800D01*
X0105691Y0152800D01*
X0105746Y0152798D01*
X0105801Y0152792D01*
X0105855Y0152783D01*
X0105908Y0152770D01*
X0105961Y0152753D01*
X0106012Y0152733D01*
X0106062Y0152710D01*
X0106110Y0152683D01*
X0106156Y0152652D01*
X0106200Y0152619D01*
X0106241Y0152583D01*
X0106280Y0152544D01*
X0106316Y0152503D01*
X0106349Y0152459D01*
X0106380Y0152413D01*
X0106407Y0152365D01*
X0106430Y0152315D01*
X0106450Y0152264D01*
X0106467Y0152211D01*
X0106480Y0152158D01*
X0106489Y0152104D01*
X0106495Y0152049D01*
X0106497Y0151994D01*
X0103685Y0152800D02*
X0102396Y0152800D01*
X0102396Y0149900D01*
X0103685Y0149900D01*
X0103363Y0151511D02*
X0102396Y0151511D01*
X0101189Y0149900D02*
X0099900Y0149900D01*
X0099900Y0152800D01*
X0144900Y0197527D02*
X0147800Y0197527D01*
X0147800Y0198816D01*
X0147800Y0200023D02*
X0144900Y0200023D01*
X0144900Y0201312D01*
X0144900Y0202513D02*
X0144900Y0203318D01*
X0144900Y0202513D02*
X0147800Y0202513D01*
X0147800Y0203318D01*
X0147798Y0203373D01*
X0147792Y0203428D01*
X0147783Y0203482D01*
X0147770Y0203535D01*
X0147753Y0203588D01*
X0147733Y0203639D01*
X0147710Y0203689D01*
X0147683Y0203737D01*
X0147652Y0203783D01*
X0147619Y0203827D01*
X0147583Y0203868D01*
X0147544Y0203907D01*
X0147503Y0203943D01*
X0147459Y0203976D01*
X0147413Y0204007D01*
X0147365Y0204034D01*
X0147315Y0204057D01*
X0147264Y0204077D01*
X0147211Y0204094D01*
X0147158Y0204107D01*
X0147104Y0204116D01*
X0147049Y0204122D01*
X0146994Y0204124D01*
X0145706Y0204124D01*
X0145651Y0204122D01*
X0145596Y0204116D01*
X0145542Y0204107D01*
X0145489Y0204094D01*
X0145436Y0204077D01*
X0145385Y0204057D01*
X0145335Y0204034D01*
X0145287Y0204007D01*
X0145241Y0203976D01*
X0145197Y0203943D01*
X0145156Y0203907D01*
X0145117Y0203868D01*
X0145081Y0203827D01*
X0145048Y0203783D01*
X0145017Y0203737D01*
X0144990Y0203689D01*
X0144967Y0203639D01*
X0144947Y0203588D01*
X0144930Y0203535D01*
X0144917Y0203482D01*
X0144908Y0203428D01*
X0144902Y0203373D01*
X0144900Y0203318D01*
X0144900Y0205489D02*
X0144900Y0206456D01*
X0144902Y0206505D01*
X0144908Y0206554D01*
X0144917Y0206603D01*
X0144930Y0206650D01*
X0144947Y0206697D01*
X0144967Y0206742D01*
X0144990Y0206785D01*
X0145017Y0206827D01*
X0145047Y0206866D01*
X0145080Y0206903D01*
X0145116Y0206937D01*
X0145154Y0206968D01*
X0145194Y0206997D01*
X0145236Y0207022D01*
X0145281Y0207044D01*
X0145326Y0207062D01*
X0145373Y0207077D01*
X0145421Y0207088D01*
X0145470Y0207096D01*
X0145519Y0207100D01*
X0145569Y0207100D01*
X0145618Y0207096D01*
X0145667Y0207088D01*
X0145715Y0207077D01*
X0145762Y0207062D01*
X0145807Y0207044D01*
X0145852Y0207022D01*
X0145894Y0206997D01*
X0145934Y0206968D01*
X0145972Y0206937D01*
X0146008Y0206903D01*
X0146041Y0206866D01*
X0146071Y0206827D01*
X0146098Y0206785D01*
X0146121Y0206742D01*
X0146141Y0206697D01*
X0146158Y0206650D01*
X0146171Y0206603D01*
X0146180Y0206554D01*
X0146186Y0206505D01*
X0146188Y0206456D01*
X0146189Y0206456D02*
X0146189Y0205811D01*
X0146188Y0206294D02*
X0146190Y0206349D01*
X0146196Y0206404D01*
X0146205Y0206458D01*
X0146218Y0206511D01*
X0146235Y0206564D01*
X0146255Y0206615D01*
X0146278Y0206665D01*
X0146305Y0206713D01*
X0146336Y0206759D01*
X0146369Y0206803D01*
X0146405Y0206844D01*
X0146444Y0206883D01*
X0146485Y0206919D01*
X0146529Y0206952D01*
X0146575Y0206983D01*
X0146623Y0207010D01*
X0146673Y0207033D01*
X0146724Y0207053D01*
X0146777Y0207070D01*
X0146830Y0207083D01*
X0146884Y0207092D01*
X0146939Y0207098D01*
X0146994Y0207100D01*
X0147049Y0207098D01*
X0147104Y0207092D01*
X0147158Y0207083D01*
X0147211Y0207070D01*
X0147264Y0207053D01*
X0147315Y0207033D01*
X0147365Y0207010D01*
X0147413Y0206983D01*
X0147459Y0206952D01*
X0147503Y0206919D01*
X0147544Y0206883D01*
X0147583Y0206844D01*
X0147619Y0206803D01*
X0147652Y0206759D01*
X0147683Y0206713D01*
X0147710Y0206665D01*
X0147733Y0206615D01*
X0147753Y0206564D01*
X0147770Y0206511D01*
X0147783Y0206458D01*
X0147792Y0206404D01*
X0147798Y0206349D01*
X0147800Y0206294D01*
X0147800Y0205489D01*
X0147800Y0201312D02*
X0147800Y0200023D01*
X0146189Y0200023D02*
X0146189Y0200990D01*
X0102100Y0240489D02*
X0102100Y0241294D01*
X0102100Y0240489D02*
X0101133Y0240489D01*
X0102100Y0240489D02*
X0102098Y0240419D01*
X0102092Y0240350D01*
X0102083Y0240280D01*
X0102070Y0240212D01*
X0102053Y0240144D01*
X0102033Y0240077D01*
X0102008Y0240012D01*
X0101981Y0239948D01*
X0101950Y0239885D01*
X0101915Y0239824D01*
X0101878Y0239766D01*
X0101837Y0239709D01*
X0101793Y0239655D01*
X0101747Y0239603D01*
X0101697Y0239553D01*
X0101645Y0239507D01*
X0101591Y0239463D01*
X0101534Y0239422D01*
X0101476Y0239385D01*
X0101415Y0239350D01*
X0101352Y0239319D01*
X0101288Y0239292D01*
X0101223Y0239267D01*
X0101156Y0239247D01*
X0101088Y0239230D01*
X0101020Y0239217D01*
X0100950Y0239208D01*
X0100881Y0239202D01*
X0100811Y0239200D01*
X0099124Y0240006D02*
X0099124Y0241294D01*
X0099122Y0241349D01*
X0099116Y0241404D01*
X0099107Y0241458D01*
X0099094Y0241511D01*
X0099077Y0241564D01*
X0099057Y0241615D01*
X0099034Y0241665D01*
X0099007Y0241713D01*
X0098976Y0241759D01*
X0098943Y0241803D01*
X0098907Y0241844D01*
X0098868Y0241883D01*
X0098827Y0241919D01*
X0098783Y0241952D01*
X0098737Y0241983D01*
X0098689Y0242010D01*
X0098639Y0242033D01*
X0098588Y0242053D01*
X0098535Y0242070D01*
X0098482Y0242083D01*
X0098428Y0242092D01*
X0098373Y0242098D01*
X0098318Y0242100D01*
X0097513Y0242100D01*
X0097513Y0239200D01*
X0098318Y0239200D01*
X0098373Y0239202D01*
X0098428Y0239208D01*
X0098482Y0239217D01*
X0098535Y0239230D01*
X0098588Y0239247D01*
X0098639Y0239267D01*
X0098689Y0239290D01*
X0098737Y0239317D01*
X0098783Y0239348D01*
X0098827Y0239381D01*
X0098868Y0239417D01*
X0098907Y0239456D01*
X0098943Y0239497D01*
X0098976Y0239541D01*
X0099007Y0239587D01*
X0099034Y0239635D01*
X0099057Y0239685D01*
X0099077Y0239736D01*
X0099094Y0239789D01*
X0099107Y0239842D01*
X0099116Y0239896D01*
X0099122Y0239951D01*
X0099124Y0240006D01*
X0100489Y0241133D02*
X0100489Y0241294D01*
X0100489Y0241133D02*
X0100491Y0241085D01*
X0100496Y0241037D01*
X0100505Y0240990D01*
X0100518Y0240943D01*
X0100534Y0240898D01*
X0100553Y0240854D01*
X0100575Y0240811D01*
X0100601Y0240770D01*
X0100629Y0240731D01*
X0100661Y0240695D01*
X0100695Y0240661D01*
X0100731Y0240630D01*
X0100770Y0240601D01*
X0100811Y0240575D01*
X0100854Y0240553D01*
X0100898Y0240534D01*
X0100943Y0240518D01*
X0100990Y0240505D01*
X0101037Y0240496D01*
X0101085Y0240491D01*
X0101133Y0240489D01*
X0100488Y0241294D02*
X0100490Y0241349D01*
X0100496Y0241404D01*
X0100505Y0241458D01*
X0100518Y0241511D01*
X0100535Y0241564D01*
X0100555Y0241615D01*
X0100578Y0241665D01*
X0100605Y0241713D01*
X0100636Y0241759D01*
X0100669Y0241803D01*
X0100705Y0241844D01*
X0100744Y0241883D01*
X0100785Y0241919D01*
X0100829Y0241952D01*
X0100875Y0241983D01*
X0100923Y0242010D01*
X0100973Y0242033D01*
X0101024Y0242053D01*
X0101077Y0242070D01*
X0101130Y0242083D01*
X0101184Y0242092D01*
X0101239Y0242098D01*
X0101294Y0242100D01*
X0101349Y0242098D01*
X0101404Y0242092D01*
X0101458Y0242083D01*
X0101511Y0242070D01*
X0101564Y0242053D01*
X0101615Y0242033D01*
X0101665Y0242010D01*
X0101713Y0241983D01*
X0101759Y0241952D01*
X0101803Y0241919D01*
X0101844Y0241883D01*
X0101883Y0241844D01*
X0101919Y0241803D01*
X0101952Y0241759D01*
X0101983Y0241713D01*
X0102010Y0241665D01*
X0102033Y0241615D01*
X0102053Y0241564D01*
X0102070Y0241511D01*
X0102083Y0241458D01*
X0102092Y0241404D01*
X0102098Y0241349D01*
X0102100Y0241294D01*
X0096312Y0242100D02*
X0095023Y0242100D01*
X0095023Y0239200D01*
X0096312Y0239200D01*
X0095990Y0240811D02*
X0095023Y0240811D01*
X0093816Y0239200D02*
X0092527Y0239200D01*
X0092527Y0242100D01*
X0060691Y0264900D02*
X0059886Y0264900D01*
X0059886Y0267800D01*
X0060691Y0267800D01*
X0060746Y0267798D01*
X0060801Y0267792D01*
X0060855Y0267783D01*
X0060908Y0267770D01*
X0060961Y0267753D01*
X0061012Y0267733D01*
X0061062Y0267710D01*
X0061110Y0267683D01*
X0061156Y0267652D01*
X0061200Y0267619D01*
X0061241Y0267583D01*
X0061280Y0267544D01*
X0061316Y0267503D01*
X0061349Y0267459D01*
X0061380Y0267413D01*
X0061407Y0267365D01*
X0061430Y0267315D01*
X0061450Y0267264D01*
X0061467Y0267211D01*
X0061480Y0267158D01*
X0061489Y0267104D01*
X0061495Y0267049D01*
X0061497Y0266994D01*
X0061497Y0265706D01*
X0061495Y0265651D01*
X0061489Y0265596D01*
X0061480Y0265542D01*
X0061467Y0265489D01*
X0061450Y0265436D01*
X0061430Y0265385D01*
X0061407Y0265335D01*
X0061380Y0265287D01*
X0061349Y0265241D01*
X0061316Y0265197D01*
X0061280Y0265156D01*
X0061241Y0265117D01*
X0061200Y0265081D01*
X0061156Y0265048D01*
X0061110Y0265017D01*
X0061062Y0264990D01*
X0061012Y0264967D01*
X0060961Y0264947D01*
X0060908Y0264930D01*
X0060855Y0264917D01*
X0060801Y0264908D01*
X0060746Y0264902D01*
X0060691Y0264900D01*
X0058685Y0264900D02*
X0057396Y0264900D01*
X0057396Y0267800D01*
X0058685Y0267800D01*
X0058363Y0266511D02*
X0057396Y0266511D01*
X0056189Y0264900D02*
X0054900Y0264900D01*
X0054900Y0267800D01*
X0063023Y0267156D02*
X0063025Y0267107D01*
X0063031Y0267058D01*
X0063040Y0267009D01*
X0063053Y0266962D01*
X0063070Y0266915D01*
X0063090Y0266870D01*
X0063113Y0266827D01*
X0063140Y0266785D01*
X0063170Y0266746D01*
X0063203Y0266709D01*
X0063239Y0266675D01*
X0063277Y0266644D01*
X0063317Y0266615D01*
X0063359Y0266590D01*
X0063404Y0266568D01*
X0063449Y0266550D01*
X0063496Y0266535D01*
X0063544Y0266524D01*
X0063593Y0266516D01*
X0063642Y0266512D01*
X0063692Y0266512D01*
X0063741Y0266516D01*
X0063790Y0266524D01*
X0063838Y0266535D01*
X0063885Y0266550D01*
X0063930Y0266568D01*
X0063975Y0266590D01*
X0064017Y0266615D01*
X0064057Y0266644D01*
X0064095Y0266675D01*
X0064131Y0266709D01*
X0064164Y0266746D01*
X0064194Y0266785D01*
X0064221Y0266827D01*
X0064244Y0266870D01*
X0064264Y0266915D01*
X0064281Y0266962D01*
X0064294Y0267009D01*
X0064303Y0267058D01*
X0064309Y0267107D01*
X0064311Y0267156D01*
X0064309Y0267205D01*
X0064303Y0267254D01*
X0064294Y0267303D01*
X0064281Y0267350D01*
X0064264Y0267397D01*
X0064244Y0267442D01*
X0064221Y0267485D01*
X0064194Y0267527D01*
X0064164Y0267566D01*
X0064131Y0267603D01*
X0064095Y0267637D01*
X0064057Y0267668D01*
X0064017Y0267697D01*
X0063975Y0267722D01*
X0063930Y0267744D01*
X0063885Y0267762D01*
X0063838Y0267777D01*
X0063790Y0267788D01*
X0063741Y0267796D01*
X0063692Y0267800D01*
X0063642Y0267800D01*
X0063593Y0267796D01*
X0063544Y0267788D01*
X0063496Y0267777D01*
X0063449Y0267762D01*
X0063404Y0267744D01*
X0063359Y0267722D01*
X0063317Y0267697D01*
X0063277Y0267668D01*
X0063239Y0267637D01*
X0063203Y0267603D01*
X0063170Y0267566D01*
X0063140Y0267527D01*
X0063113Y0267485D01*
X0063090Y0267442D01*
X0063070Y0267397D01*
X0063053Y0267350D01*
X0063040Y0267303D01*
X0063031Y0267254D01*
X0063025Y0267205D01*
X0063023Y0267156D01*
X0062861Y0265706D02*
X0062863Y0265651D01*
X0062869Y0265596D01*
X0062878Y0265542D01*
X0062891Y0265489D01*
X0062908Y0265436D01*
X0062928Y0265385D01*
X0062951Y0265335D01*
X0062978Y0265287D01*
X0063009Y0265241D01*
X0063042Y0265197D01*
X0063078Y0265156D01*
X0063117Y0265117D01*
X0063158Y0265081D01*
X0063202Y0265048D01*
X0063248Y0265017D01*
X0063296Y0264990D01*
X0063346Y0264967D01*
X0063397Y0264947D01*
X0063450Y0264930D01*
X0063503Y0264917D01*
X0063557Y0264908D01*
X0063612Y0264902D01*
X0063667Y0264900D01*
X0063722Y0264902D01*
X0063777Y0264908D01*
X0063831Y0264917D01*
X0063884Y0264930D01*
X0063937Y0264947D01*
X0063988Y0264967D01*
X0064038Y0264990D01*
X0064086Y0265017D01*
X0064132Y0265048D01*
X0064176Y0265081D01*
X0064217Y0265117D01*
X0064256Y0265156D01*
X0064292Y0265197D01*
X0064325Y0265241D01*
X0064356Y0265287D01*
X0064383Y0265335D01*
X0064406Y0265385D01*
X0064426Y0265436D01*
X0064443Y0265489D01*
X0064456Y0265542D01*
X0064465Y0265596D01*
X0064471Y0265651D01*
X0064473Y0265706D01*
X0064471Y0265761D01*
X0064465Y0265816D01*
X0064456Y0265870D01*
X0064443Y0265923D01*
X0064426Y0265976D01*
X0064406Y0266027D01*
X0064383Y0266077D01*
X0064356Y0266125D01*
X0064325Y0266171D01*
X0064292Y0266215D01*
X0064256Y0266256D01*
X0064217Y0266295D01*
X0064176Y0266331D01*
X0064132Y0266364D01*
X0064086Y0266395D01*
X0064038Y0266422D01*
X0063988Y0266445D01*
X0063937Y0266465D01*
X0063884Y0266482D01*
X0063831Y0266495D01*
X0063777Y0266504D01*
X0063722Y0266510D01*
X0063667Y0266512D01*
X0063612Y0266510D01*
X0063557Y0266504D01*
X0063503Y0266495D01*
X0063450Y0266482D01*
X0063397Y0266465D01*
X0063346Y0266445D01*
X0063296Y0266422D01*
X0063248Y0266395D01*
X0063202Y0266364D01*
X0063158Y0266331D01*
X0063117Y0266295D01*
X0063078Y0266256D01*
X0063042Y0266215D01*
X0063009Y0266171D01*
X0062978Y0266125D01*
X0062951Y0266077D01*
X0062928Y0266027D01*
X0062908Y0265976D01*
X0062891Y0265923D01*
X0062878Y0265870D01*
X0062869Y0265816D01*
X0062863Y0265761D01*
X0062861Y0265706D01*
X0157647Y0248100D02*
X0157647Y0245200D01*
X0158936Y0245200D01*
X0160143Y0245200D02*
X0160143Y0248100D01*
X0161432Y0248100D01*
X0162633Y0248100D02*
X0163438Y0248100D01*
X0162633Y0248100D02*
X0162633Y0245200D01*
X0163438Y0245200D01*
X0163493Y0245202D01*
X0163548Y0245208D01*
X0163602Y0245217D01*
X0163655Y0245230D01*
X0163708Y0245247D01*
X0163759Y0245267D01*
X0163809Y0245290D01*
X0163857Y0245317D01*
X0163903Y0245348D01*
X0163947Y0245381D01*
X0163988Y0245417D01*
X0164027Y0245456D01*
X0164063Y0245497D01*
X0164096Y0245541D01*
X0164127Y0245587D01*
X0164154Y0245635D01*
X0164177Y0245685D01*
X0164197Y0245736D01*
X0164214Y0245789D01*
X0164227Y0245842D01*
X0164236Y0245896D01*
X0164242Y0245951D01*
X0164244Y0246006D01*
X0164244Y0247294D01*
X0164242Y0247349D01*
X0164236Y0247404D01*
X0164227Y0247458D01*
X0164214Y0247511D01*
X0164197Y0247564D01*
X0164177Y0247615D01*
X0164154Y0247665D01*
X0164127Y0247713D01*
X0164096Y0247759D01*
X0164063Y0247803D01*
X0164027Y0247844D01*
X0163988Y0247883D01*
X0163947Y0247919D01*
X0163903Y0247952D01*
X0163857Y0247983D01*
X0163809Y0248010D01*
X0163759Y0248033D01*
X0163708Y0248053D01*
X0163655Y0248070D01*
X0163602Y0248083D01*
X0163548Y0248092D01*
X0163493Y0248098D01*
X0163438Y0248100D01*
X0165609Y0247456D02*
X0166414Y0248100D01*
X0166414Y0245200D01*
X0165609Y0245200D02*
X0167220Y0245200D01*
X0169858Y0245603D02*
X0169896Y0245685D01*
X0169931Y0245768D01*
X0169963Y0245853D01*
X0169992Y0245938D01*
X0170017Y0246025D01*
X0170039Y0246113D01*
X0170057Y0246201D01*
X0170073Y0246290D01*
X0170085Y0246380D01*
X0170093Y0246469D01*
X0170098Y0246560D01*
X0170100Y0246650D01*
X0168489Y0246650D02*
X0168491Y0246740D01*
X0168496Y0246831D01*
X0168504Y0246920D01*
X0168516Y0247010D01*
X0168532Y0247099D01*
X0168550Y0247187D01*
X0168572Y0247275D01*
X0168597Y0247362D01*
X0168626Y0247447D01*
X0168658Y0247532D01*
X0168693Y0247615D01*
X0168731Y0247697D01*
X0169294Y0248100D02*
X0169340Y0248098D01*
X0169386Y0248093D01*
X0169431Y0248084D01*
X0169476Y0248072D01*
X0169519Y0248056D01*
X0169561Y0248037D01*
X0169602Y0248014D01*
X0169640Y0247989D01*
X0169677Y0247961D01*
X0169711Y0247930D01*
X0169743Y0247896D01*
X0169772Y0247860D01*
X0169798Y0247822D01*
X0169821Y0247782D01*
X0169841Y0247740D01*
X0169858Y0247697D01*
X0169939Y0247456D02*
X0168650Y0245844D01*
X0169294Y0245200D02*
X0169340Y0245202D01*
X0169386Y0245207D01*
X0169431Y0245216D01*
X0169476Y0245228D01*
X0169519Y0245244D01*
X0169561Y0245263D01*
X0169602Y0245286D01*
X0169640Y0245311D01*
X0169677Y0245339D01*
X0169711Y0245370D01*
X0169743Y0245404D01*
X0169772Y0245440D01*
X0169798Y0245478D01*
X0169821Y0245518D01*
X0169841Y0245560D01*
X0169858Y0245603D01*
X0169294Y0245200D02*
X0169248Y0245202D01*
X0169202Y0245207D01*
X0169157Y0245216D01*
X0169112Y0245228D01*
X0169069Y0245244D01*
X0169027Y0245263D01*
X0168986Y0245286D01*
X0168948Y0245311D01*
X0168911Y0245339D01*
X0168877Y0245370D01*
X0168845Y0245404D01*
X0168816Y0245440D01*
X0168790Y0245478D01*
X0168767Y0245518D01*
X0168747Y0245560D01*
X0168730Y0245603D01*
X0170100Y0246650D02*
X0170098Y0246740D01*
X0170093Y0246831D01*
X0170085Y0246920D01*
X0170073Y0247010D01*
X0170057Y0247099D01*
X0170039Y0247187D01*
X0170017Y0247275D01*
X0169992Y0247362D01*
X0169963Y0247447D01*
X0169931Y0247532D01*
X0169896Y0247615D01*
X0169858Y0247697D01*
X0169294Y0248100D02*
X0169248Y0248098D01*
X0169202Y0248093D01*
X0169157Y0248084D01*
X0169112Y0248072D01*
X0169069Y0248056D01*
X0169027Y0248037D01*
X0168986Y0248014D01*
X0168948Y0247989D01*
X0168911Y0247961D01*
X0168877Y0247930D01*
X0168845Y0247896D01*
X0168816Y0247860D01*
X0168790Y0247822D01*
X0168767Y0247782D01*
X0168747Y0247740D01*
X0168730Y0247697D01*
X0168489Y0246650D02*
X0168491Y0246560D01*
X0168496Y0246469D01*
X0168504Y0246380D01*
X0168516Y0246290D01*
X0168532Y0246201D01*
X0168550Y0246113D01*
X0168572Y0246025D01*
X0168597Y0245938D01*
X0168626Y0245853D01*
X0168658Y0245768D01*
X0168693Y0245685D01*
X0168731Y0245603D01*
X0161432Y0245200D02*
X0160143Y0245200D01*
X0160143Y0246811D02*
X0161110Y0246811D01*
D14*
X0140000Y0024000D02*
X0135000Y0024000D01*
X0132500Y0021500D01*
X0132500Y0016500D01*
X0135000Y0014000D01*
X0140000Y0014000D01*
X0142500Y0016500D01*
X0142500Y0021500D01*
X0140000Y0024000D01*
X0132500Y0021500D02*
X0130000Y0024000D01*
X0125000Y0024000D01*
X0122500Y0021500D01*
X0122500Y0016500D01*
X0125000Y0014000D01*
X0130000Y0014000D01*
X0132500Y0016500D01*
X0122500Y0016500D02*
X0120000Y0014000D01*
X0115000Y0014000D01*
X0112500Y0016500D01*
X0112500Y0021500D01*
X0115000Y0024000D01*
X0120000Y0024000D01*
X0122500Y0021500D01*
M02*
