G75*
%MOIN*%
%OFA0B0*%
%FSLAX25Y25*%
%IPPOS*%
%LPD*%
%AMOC8*
5,1,8,0,0,1.08239X$1,22.5*
%
%ADD10R,0.07887X0.07099*%
%ADD11R,0.07099X0.07887*%
%ADD12R,0.04343X0.06706*%
%ADD13R,0.06706X0.04343*%
%ADD14C,0.06800*%
%ADD15C,0.04762*%
D10*
X0098500Y0054488D03*
X0098500Y0065512D03*
X0141500Y0061512D03*
X0141500Y0050488D03*
X0165000Y0046988D03*
X0165000Y0058012D03*
X0126000Y0100488D03*
X0126000Y0111512D03*
X0123000Y0127488D03*
X0123000Y0138512D03*
X0075500Y0235988D03*
X0075500Y0247012D03*
X0113000Y0249488D03*
X0113000Y0260512D03*
X0146000Y0255488D03*
X0146000Y0266512D03*
D11*
X0137512Y0186000D03*
X0126488Y0186000D03*
X0138488Y0158000D03*
X0149512Y0158000D03*
D12*
X0074228Y0053717D03*
X0087220Y0053717D03*
X0087220Y0073008D03*
X0074228Y0073008D03*
X0114504Y0075646D03*
X0127496Y0075646D03*
X0127496Y0056354D03*
X0114504Y0056354D03*
X0174504Y0056354D03*
X0187496Y0056354D03*
X0187496Y0075646D03*
X0174504Y0075646D03*
X0147496Y0096354D03*
X0134504Y0096354D03*
X0134504Y0115646D03*
X0147496Y0115646D03*
X0144504Y0126354D03*
X0157496Y0126354D03*
X0157496Y0145646D03*
X0144504Y0145646D03*
X0112496Y0145646D03*
X0099504Y0145646D03*
X0099504Y0126354D03*
X0112496Y0126354D03*
X0067496Y0241354D03*
X0054504Y0241354D03*
X0054504Y0260646D03*
X0067496Y0260646D03*
X0089504Y0265646D03*
X0102496Y0265646D03*
X0102496Y0246354D03*
X0089504Y0246354D03*
X0157504Y0252354D03*
X0170496Y0252354D03*
X0170496Y0271646D03*
X0157504Y0271646D03*
D13*
X0140646Y0207496D03*
X0140646Y0194504D03*
X0121354Y0194504D03*
X0121354Y0207496D03*
D14*
X0117500Y0022000D02*
X0117500Y0016000D01*
X0127500Y0016000D02*
X0127500Y0022000D01*
X0137500Y0022000D02*
X0137500Y0016000D01*
D15*
X0178500Y0258500D03*
M02*
